# Blender v2.82 (sub 7) OBJ File: ''
# www.blender.org
mtllib lowpolyfrog.mtl
o Lowpolyfrog_Lowpolyfrog.001
v 2.490503 13.831207 18.973627
v 12.781535 6.086842 11.936863
v 7.647115 16.788881 16.993206
v 17.173822 2.679555 10.830946
v 14.570129 0.721744 11.127439
v 17.718332 1.968335 13.617316
v 20.494400 -0.429343 13.625385
v 21.292610 1.233985 11.709960
v 22.836525 -0.200744 18.436056
v 20.791868 1.131154 16.511028
v 18.782228 1.174144 17.407019
v 19.519201 -0.157717 20.032190
v 25.167816 -0.196114 11.395972
v 24.330965 -0.195357 14.621715
v 16.784513 -0.121489 8.849869
v 16.960711 -0.324044 15.020204
v 15.310359 0.975288 16.465868
v 13.783693 -0.244696 18.271862
v 13.318701 0.603904 13.074701
v 10.253382 4.214374 10.526759
v 15.007495 6.001913 6.676558
v 16.136192 4.552029 8.127844
v 16.019663 2.514098 7.273543
v 10.362350 10.849409 7.193343
v 11.223732 11.445543 10.481342
v 7.870415 7.886513 9.920651
v 5.492713 10.513825 14.417247
v 11.391060 23.594839 8.624166
v 12.618695 18.764372 10.426436
v 7.212801 17.589756 4.222243
v 11.884934 14.788824 12.942885
v 10.802821 23.693670 13.445142
v -2.830686 20.753010 22.629436
v 2.655224 20.522820 22.668093
v 2.899515 21.858686 18.410103
v -2.862743 21.904005 18.392586
v 5.076262 22.099747 14.895270
v -4.943977 22.405275 14.491316
v 0.236080 21.067698 9.083895
v 8.117270 3.823331 -0.134107
v 0.721727 6.096123 12.106161
v 4.511657 2.995085 6.857892
v 9.200480 18.019440 14.970622
v 6.938756 25.230375 9.729178
v 3.700645 23.810194 9.417438
v 15.154477 2.301498 -2.335577
v 16.378967 -0.300007 -2.431002
v 15.102269 2.567745 -9.896636
v 15.295755 0.183350 1.349801
v 17.753101 0.952975 2.914660
v 17.452614 1.611024 -1.469138
v 21.764593 -0.212870 0.982699
v 22.575884 0.097459 -2.554053
v 14.209281 -0.030985 5.135477
v 12.689976 1.074741 2.560899
v 13.229158 -0.201628 -2.565290
v 10.990000 0.026514 3.534627
v 14.270696 1.612838 -1.260142
v 21.274258 -0.207511 4.564062
v 18.926861 -0.260358 0.241757
v 17.616079 -0.193749 6.758677
v 6.560103 4.953712 -22.314671
v 8.769098 3.651042 -21.952942
v 7.870217 -0.169403 -21.997980
v 4.663223 -0.537112 -18.975679
v 15.817597 4.307703 -0.007956
v 6.455541 3.722012 -18.012068
v 9.999315 7.014592 -5.693396
v 5.064969 3.185826 -9.710536
v 10.212375 7.195379 -17.232332
v 14.729964 7.770942 -8.002687
v 3.914427 4.647324 -19.875334
v 7.926108 10.484574 -6.551395
v -0.195777 9.439260 -16.345022
v -0.224670 3.932793 -20.617504
v 3.726279 -0.687566 -10.894962
v 4.344846 -0.727010 1.885465
v -12.050669 7.003743 10.892901
v -18.592791 2.681367 11.610571
v -13.214597 1.388983 13.093364
v -12.899899 1.059569 14.482862
v -15.728402 1.059130 16.824863
v -13.470695 -0.227789 20.579674
v -10.561578 -0.458483 18.253660
v -24.846611 -0.336314 14.577273
v -24.900497 -0.218374 10.906215
v -20.663414 -0.561925 10.466985
v -17.319298 1.528842 15.439585
v -19.538679 1.594771 13.890670
v -20.099327 0.854417 16.754038
v -15.418729 -0.678632 9.087296
v -19.259621 -0.620744 20.159288
v -23.732193 -0.392461 19.353107
v -14.824615 5.733490 4.912710
v -11.176309 3.920525 9.061219
v -13.607677 1.314772 9.075944
v -10.622844 10.810181 6.513062
v -6.964528 8.023263 12.047364
v -9.309609 15.931484 5.069837
v -10.955694 23.833387 8.633180
v -6.082576 18.043966 4.318709
v -11.545393 15.093117 13.871873
v -2.191465 10.955214 16.474333
v -4.563211 15.019150 18.914394
v -8.261521 3.823331 -0.134106
v -2.830183 23.598055 9.820382
v -6.372761 25.305088 10.671276
v -10.967830 -0.248456 3.490602
v -15.108676 2.474849 -2.148684
v -16.395838 1.541701 1.253703
v -18.193769 1.435992 -0.019002
v -16.818815 2.443356 -2.355305
v -18.245232 1.421850 2.456544
v -18.606892 -0.365730 5.644395
v -21.089081 -0.263581 4.217106
v -16.424353 -0.083639 -2.416431
v -22.875729 -0.104395 -2.375803
v -13.761233 -0.251751 -2.425319
v -16.270947 -0.095114 1.725210
v -13.984902 -0.071640 5.222557
v -22.210524 -0.202105 -0.071256
v -22.207602 -0.201966 -0.068147
v -10.945202 7.092875 -4.418375
v -14.120205 6.798069 -7.426506
v -15.817597 4.307703 -0.657608
v -4.548846 -0.536656 -18.789497
v -6.509852 -0.382064 -21.786823
v -5.767980 4.331168 -22.539877
v -9.050725 3.652668 -21.568123
v -13.983219 4.252698 -10.165620
v -5.302546 3.108809 -19.286320
v -5.439330 3.484297 -8.527234
v -9.942799 6.652659 -15.684166
v -4.940599 5.634424 -17.398714
v -3.640354 -0.662464 -10.848741
v -3.493472 -0.637985 2.984315
v -4.070999 2.990071 7.626169
v -8.127831 19.115330 15.718335
v -12.660318 18.841043 10.691269
v -10.932507 23.554144 13.323071
v 12.029068 -0.327471 15.081409
v 0.164725 -0.670370 5.401030
v -12.800958 -0.533514 13.423594
v -20.136757 -0.464599 13.783498
v -17.042191 -0.417300 15.682221
v -22.217575 -0.205565 -0.068269
v -17.771563 -0.047610 -0.442951
v -19.751345 -0.063590 2.041069
v 0.403402 2.643879 8.255430
vn 0.4480 -0.1971 0.8721
vn 0.1781 -0.0885 0.9800
vn 0.6521 0.7553 0.0653
vn 0.1106 0.7271 0.6775
vn -0.5497 0.7774 0.3058
vn 0.1997 0.8922 0.4051
vn 0.2027 0.8951 0.3972
vn 0.3513 0.9319 0.0909
vn -0.2015 0.7796 0.5930
vn 0.2093 0.7139 -0.6682
vn 0.7221 0.1715 0.6702
vn 0.7105 0.1337 0.6909
vn -0.1369 0.9902 -0.0280
vn -0.3734 0.9276 0.0077
vn 0.3468 0.5090 -0.7878
vn -0.5798 -0.7649 -0.2806
vn 0.6855 -0.0000 -0.7281
vn 0.6166 0.7128 -0.3341
vn -0.8371 0.3558 0.4155
vn -0.8184 0.4715 0.3286
vn 0.8506 0.1612 -0.5005
vn -0.4890 -0.3852 -0.7826
vn 0.8649 0.3493 0.3604
vn -0.4138 -0.4032 -0.8162
vn 0.6729 0.6767 -0.2990
vn -0.8249 -0.5539 -0.1126
vn -0.8331 -0.5280 -0.1645
vn 0.0446 -0.6387 0.7682
vn 0.9152 0.3292 0.2325
vn -0.4741 -0.4135 -0.7774
vn -0.9604 -0.2787 0.0000
vn -0.3264 -0.2465 0.9125
vn 0.6318 0.7293 0.2626
vn 0.6247 0.7390 0.2524
vn 0.7577 -0.0502 -0.6507
vn 0.9585 -0.1843 -0.2177
vn 0.7473 0.0574 -0.6620
vn 0.9823 -0.1873 -0.0095
vn 0.9526 0.2833 0.1104
vn -0.0264 -0.4827 0.8754
vn 0.0066 0.9540 0.2997
vn 0.7823 0.5163 0.3484
vn 0.3819 0.8753 0.2965
vn 0.5255 -0.4211 0.7393
vn 0.0074 0.9923 0.1235
vn 0.0269 0.9960 0.0850
vn 0.0381 0.9779 -0.2054
vn 0.8373 -0.4995 0.2224
vn 0.3658 -0.6613 0.6549
vn 0.3626 -0.7084 0.6056
vn 0.1860 0.2058 0.9608
vn -0.1736 0.5717 -0.8019
vn 0.9049 0.4256 0.0087
vn -0.3878 0.9073 0.1628
vn 0.4016 0.2216 -0.8886
vn 0.3097 0.9384 0.1534
vn -0.0477 0.4703 -0.8812
vn 0.0736 0.8659 0.4948
vn 0.3860 0.9081 0.1622
vn -0.6082 0.7529 -0.2514
vn -0.7630 0.6039 -0.2306
vn -0.2318 0.8367 0.4961
vn 0.8507 0.2450 -0.4650
vn -0.4281 0.8701 0.2443
vn -0.2182 0.5593 0.7997
vn 0.1482 -0.0232 -0.9887
vn -0.6571 -0.2127 -0.7232
vn 0.7413 -0.5981 0.3043
vn 0.8606 -0.1969 -0.4697
vn -0.9251 0.3704 0.0836
vn -0.6723 0.0964 0.7339
vn 0.8704 0.2273 -0.4368
vn -0.5267 0.8500 0.0036
vn 0.8702 0.2223 -0.4398
vn -0.8650 0.4875 0.1185
vn 0.9551 -0.2959 -0.0170
vn 0.5403 0.7611 -0.3589
vn -0.8673 0.4978 0.0000
vn -0.6672 -0.0389 0.7439
vn 0.4648 0.7530 -0.4658
vn 0.4693 0.7481 -0.4691
vn 0.9612 -0.1767 -0.2120
vn 0.0359 0.6125 -0.7897
vn 0.9304 -0.2357 -0.2808
vn 0.7037 -0.6877 -0.1785
vn 0.5765 -0.0582 -0.8151
vn 0.1981 -0.1397 -0.9702
vn -0.6899 0.7014 0.1789
vn -0.6591 -0.0022 0.7521
vn 0.7607 -0.6479 -0.0388
vn 0.1594 0.8968 -0.4128
vn 0.9194 0.3536 -0.1723
vn 0.9762 -0.1352 -0.1694
vn 0.6990 -0.6569 0.2826
vn 0.0136 0.5850 -0.8109
vn 0.7230 0.1825 0.6663
vn 0.3909 -0.5946 0.7026
vn 0.3499 0.9365 0.0235
vn -0.1192 0.8676 0.4828
vn 0.8026 -0.0673 0.5927
vn 0.4981 0.5163 0.6967
vn 0.7549 0.2456 0.6081
vn 0.0444 0.9189 0.3920
vn 0.4723 0.6295 -0.6170
vn 0.9906 0.1036 -0.0899
vn -0.1518 0.9883 0.0127
vn -0.4033 0.8398 0.3635
vn -0.5979 0.7101 0.3719
vn -0.1570 0.3884 0.9080
vn 0.1815 0.9586 0.2194
vn 0.2526 0.9417 0.2225
vn -0.4207 0.9065 0.0353
vn -0.0662 0.3691 -0.9270
vn -0.2145 0.9133 0.3462
vn -0.1281 0.9660 0.2247
vn -0.2185 0.4456 -0.8682
vn -0.2890 0.9052 0.3115
vn -0.0259 0.9149 0.4027
vn -0.7672 -0.2985 -0.5677
vn 0.7297 -0.6812 -0.0588
vn 0.6423 -0.3107 -0.7006
vn 0.7250 -0.2894 -0.6250
vn -0.0863 -0.5268 0.8456
vn 0.5308 -0.4991 -0.6849
vn 0.5394 -0.4940 -0.6819
vn 0.8951 -0.0109 0.4457
vn -0.4366 0.7447 0.5048
vn -0.7457 0.6553 -0.1209
vn -0.4012 0.3058 -0.8635
vn -0.9571 0.1818 -0.2258
vn 0.0100 -0.6652 0.7466
vn -0.0949 -0.5210 0.8483
vn -0.5555 -0.3274 0.7644
vn -0.1445 -0.3340 0.9314
vn -0.2540 0.9329 0.2554
vn 0.0386 0.9644 0.2617
vn -0.8065 -0.5272 0.2676
vn 0.2956 0.5793 -0.7596
vn 0.1204 0.6564 -0.7448
vn 0.1746 0.9307 0.3213
vn -0.0612 0.9291 0.3646
vn 0.2678 0.8271 0.4942
vn -0.5125 0.8587 -0.0057
vn 0.4300 0.8523 0.2979
vn -0.0064 0.0232 -0.9997
vn -0.1920 0.9626 0.1913
vn 0.8119 0.4401 -0.3836
vn -0.8337 0.0932 0.5443
vn 0.2043 0.9439 0.2596
vn 0.8332 0.2108 0.5112
vn -0.3298 0.9049 0.2692
vn -0.3740 0.9112 0.1728
vn -0.3250 0.9111 0.2537
vn 0.8122 -0.2145 -0.5425
vn -0.2607 -0.1122 -0.9589
vn -0.0434 0.9766 0.2105
vn 0.9788 0.1932 -0.0674
vn 0.6050 0.0166 0.7961
vn -0.7921 0.4868 -0.3683
vn -0.8995 -0.2200 -0.3775
vn -0.9158 -0.1338 -0.3787
vn 0.4991 0.8665 0.0106
vn -0.8125 0.4063 -0.4182
vn -0.7867 -0.4740 -0.3954
vn 0.5334 -0.4000 0.7453
vn 0.7703 0.6254 0.1248
vn -0.9578 -0.2212 -0.1835
vn -0.8011 0.4277 -0.4187
vn -0.2926 0.5990 -0.7454
vn -0.5006 0.7460 -0.4392
vn -0.9819 -0.0037 -0.1893
vn -0.6862 -0.7274 0.0086
vn -0.3023 0.5853 -0.7523
vn -0.0188 -0.3628 -0.9317
vn -0.9247 -0.2323 -0.3015
vn -0.6953 -0.6886 -0.2060
vn -0.2227 -0.1767 -0.9587
vn 0.5290 0.1772 0.8299
vn 0.6423 0.7358 0.2144
vn 0.6283 -0.1543 0.7625
vn -0.1223 0.9034 -0.4110
vn -0.5602 0.6959 -0.4494
vn -0.8956 0.1080 -0.4317
vn -0.7517 -0.5618 0.3456
vn -0.1822 -0.7060 0.6844
vn 0.5635 0.7458 0.3553
vn 0.2335 0.0000 0.9723
vn -0.9706 0.1342 -0.1998
vn -0.7638 0.4266 0.4843
vn -0.8416 0.0664 -0.5360
vn -0.8434 -0.4707 -0.2591
vn -0.0937 0.4263 0.8997
vn -0.7359 -0.1039 0.6691
vn -0.7126 0.3185 0.6251
vn -0.9429 0.3320 0.0244
vn 0.0379 0.8027 0.5952
vn -0.3284 0.9428 0.0578
vn -0.6238 0.7184 0.3078
vn -0.3097 0.8273 -0.4687
vn -0.9706 0.1502 -0.1881
vn -0.0514 0.9977 -0.0436
vn 0.0010 -0.9997 0.0254
vn 0.0139 -0.9971 -0.0751
vn 0.0003 -0.9995 -0.0328
vn 0.0624 -0.9954 -0.0730
vn 0.0171 -0.9999 -0.0015
vn -0.1828 -0.9804 0.0730
vn -0.2659 -0.9629 0.0469
vn -0.0308 -0.9992 0.0261
vn -0.0002 -1.0000 -0.0055
vn -0.0839 -0.9960 -0.0308
vn -0.0618 0.9981 0.0044
vn 0.8574 0.3209 -0.4025
vn -0.0630 -0.9979 -0.0169
vn -0.0139 -0.9994 0.0315
vn -0.0904 -0.9949 -0.0455
vn 0.0154 -0.9999 -0.0033
vn 0.1041 -0.9945 -0.0066
vn -0.0458 -0.9987 0.0222
vn 0.0570 -0.9983 0.0150
vn 0.0080 -0.9990 0.0436
vn -0.1142 -0.9931 0.0247
vn -0.8413 0.0000 -0.5406
vn -0.7298 -0.3784 -0.5694
vn 0.1356 -0.9901 -0.0364
vn 0.3668 -0.9246 -0.1027
vn 0.0611 -0.9981 -0.0115
vn 0.0027 -0.9999 0.0108
vn 0.0040 -0.9999 0.0110
vn 0.1868 -0.9824 -0.0020
vn 0.0894 -0.9957 -0.0263
vn -0.1882 -0.9813 -0.0401
vn -0.0217 -0.9992 0.0328
vn 0.0208 -0.9988 0.0447
vn -0.0392 -0.9971 -0.0647
vn 0.9680 0.1779 -0.1771
vn 0.8509 0.0943 -0.5168
vn -0.2271 0.8602 0.4566
vn 0.0029 -0.9990 -0.0446
vn -0.0629 -0.9978 0.0217
vn 0.1271 -0.9914 -0.0303
vn -0.0566 -0.9983 -0.0145
vn -0.0490 -0.9987 -0.0102
vn 0.7711 -0.5390 -0.3389
vn -0.1768 0.9607 0.2138
vn 0.1403 0.9755 0.1696
vn 0.1456 0.9696 0.1969
vn -0.0309 0.9144 0.4037
vn -0.8092 0.2624 -0.5258
vn 0.1628 -0.0984 0.9817
vn 0.9592 0.1652 0.2296
vn 0.8781 0.1803 0.4431
vn 0.1269 -0.9910 -0.0434
vn -0.0421 -0.9980 0.0463
vn -0.0063 0.9448 0.3276
vn -0.8065 -0.0413 0.5898
vn -0.0010 -0.9992 0.0394
vn 0.0393 -0.9982 0.0450
vn 0.0086 -0.9962 -0.0863
vn -0.0659 0.8640 0.4991
vn -0.0692 -0.9957 -0.0615
vn -0.1279 -0.9894 -0.0693
vn -0.7811 -0.0443 -0.6228
vn -0.8444 0.1876 -0.5018
vn 0.0905 -0.2832 0.9548
vn 0.0901 -0.2498 0.9641
vn -0.3838 0.9112 0.1494
vn -0.3299 0.9048 0.2694
vn 0.1758 0.9416 0.2872
vn 0.2567 0.9582 0.1262
vn 0.9474 0.0762 -0.3109
vn 0.9462 0.0885 -0.3111
vn -0.1503 -0.7299 0.6668
vn -0.6884 -0.6600 0.3009
vn 0.7917 -0.5015 0.3489
vn -0.1847 -0.7160 0.6733
vn 0.2918 -0.6715 0.6812
vn -0.1003 -0.5545 0.8261
vn -0.3003 -0.6137 0.7302
vn -0.5077 -0.5084 0.6955
vn 0.2761 -0.7269 0.6288
vn -0.1554 -0.6382 0.7540
vn 0.7387 -0.6714 -0.0599
vn -0.0101 -0.9999 0.0019
vn -0.3663 -0.7547 0.5443
vn -0.0155 -0.9999 -0.0023
vn 0.4358 -0.7275 0.5299
vn 0.2968 -0.6354 0.7129
vn 0.1659 0.9582 0.2332
vn 0.0999 0.9791 0.1771
vn -0.4181 0.8964 0.1474
vn -0.4383 0.8719 0.2184
vn -0.3156 0.4970 -0.8084
vn 0.1374 0.6553 -0.7428
usemtl None
s off
f 1//1 2//1 3//1
f 4//2 2//2 5//2
f 4//3 6//3 7//3
f 7//4 8//4 4//4
f 4//5 5//5 6//5
f 9//6 10//6 11//6
f 9//7 11//7 12//7
f 13//8 8//8 14//8
f 7//9 14//9 8//9
f 8//10 13//10 15//10
f 16//11 6//11 17//11
f 16//12 17//12 18//12
f 5//13 19//13 17//13
f 5//14 17//14 6//14
f 8//15 15//15 4//15
f 5//16 20//16 15//16
f 6//17 10//17 9//17
f 6//18 9//18 7//18
f 16//19 12//19 11//19
f 16//20 11//20 6//20
f 21//21 22//21 23//21
f 24//22 21//22 20//22
f 21//23 25//23 2//23
f 20//24 26//24 24//24
f 25//25 21//25 24//25
f 26//26 20//26 27//26
f 20//27 1//27 27//27
f 2//28 1//28 20//28
f 25//29 3//29 2//29
f 15//30 20//30 21//30
f 15//31 21//31 23//31
f 5//32 2//32 20//32
f 2//33 4//33 22//33
f 2//34 22//34 21//34
f 28//35 29//35 30//35
f 24//36 29//36 25//36
f 29//37 24//37 30//37
f 29//38 31//38 25//38
f 28//39 32//39 29//39
f 33//40 1//40 34//40
f 35//41 36//41 34//41
f 3//42 37//42 34//42
f 34//43 37//43 35//43
f 1//44 3//44 34//44
f 36//45 35//45 38//45
f 38//46 35//46 37//46
f 37//47 39//47 38//47
f 24//48 26//48 40//48
f 26//49 41//49 42//49
f 26//50 27//50 41//50
f 43//51 32//51 37//51
f 44//52 30//52 45//52
f 46//53 47//53 48//53
f 49//54 50//54 51//54
f 47//55 46//55 51//55
f 52//56 53//56 51//56
f 51//57 53//57 47//57
f 51//58 46//58 49//58
f 54//59 49//59 55//59
f 56//60 57//60 55//60
f 56//61 55//61 58//61
f 57//62 54//62 55//62
f 59//63 60//63 51//63
f 49//64 61//64 50//64
f 52//65 51//65 60//65
f 62//66 63//66 64//66
f 62//67 64//67 65//67
f 56//68 46//68 66//68
f 48//69 64//69 63//69
f 62//70 65//70 67//70
f 68//71 69//71 66//71
f 48//72 63//72 70//72
f 68//73 70//73 62//73
f 70//74 71//74 48//74
f 62//75 67//75 68//75
f 66//76 46//76 48//76
f 67//77 72//77 68//77
f 56//78 58//78 66//78
f 56//79 66//79 69//79
f 30//80 73//80 74//80
f 73//81 72//81 74//81
f 73//82 40//82 72//82
f 72//83 75//83 74//83
f 76//84 69//84 40//84
f 40//85 69//85 72//85
f 67//86 65//86 72//86
f 75//87 72//87 65//87
f 72//88 69//88 68//88
f 76//89 56//89 69//89
f 40//90 77//90 76//90
f 74//91 39//91 30//91
f 73//92 30//92 24//92
f 24//93 40//93 73//93
f 26//94 42//94 40//94
f 28//95 30//95 44//95
f 3//96 31//96 43//96
f 3//97 25//97 31//97
f 44//98 32//98 28//98
f 32//99 44//99 37//99
f 29//100 32//100 43//100
f 43//101 37//101 3//101
f 29//102 43//102 31//102
f 68//103 66//103 71//103
f 62//104 70//104 63//104
f 66//105 48//105 71//105
f 71//106 70//106 68//106
f 37//107 44//107 45//107
f 37//108 45//108 39//108
f 78//109 79//109 80//109
f 81//110 82//110 83//110
f 81//111 83//111 84//111
f 85//112 79//112 86//112
f 87//113 86//113 79//113
f 88//114 79//114 89//114
f 89//115 90//115 88//115
f 91//116 87//116 79//116
f 79//117 85//117 89//117
f 92//118 90//118 93//118
f 79//119 94//119 91//119
f 95//120 80//120 96//120
f 95//121 94//121 97//121
f 97//122 98//122 95//122
f 95//123 98//123 78//123
f 94//124 95//124 96//124
f 94//125 96//125 91//125
f 95//126 78//126 80//126
f 97//127 79//127 78//127
f 94//128 79//128 97//128
f 99//129 100//129 101//129
f 102//130 99//130 97//130
f 1//131 103//131 41//131
f 33//132 104//132 1//132
f 33//133 102//133 104//133
f 102//134 78//134 98//134
f 36//135 38//135 33//135
f 36//136 33//136 34//136
f 105//137 98//137 97//137
f 39//138 101//138 106//138
f 107//139 101//139 100//139
f 108//140 109//140 110//140
f 111//141 109//141 112//141
f 110//142 113//142 114//142
f 115//143 113//143 111//143
f 55//144 49//144 58//144
f 116//145 117//145 112//145
f 110//146 109//146 111//146
f 108//147 118//147 109//147
f 110//148 119//148 120//148
f 108//149 110//149 120//149
f 114//150 119//150 110//150
f 112//151 121//151 122//151
f 112//152 122//152 111//152
f 123//153 124//153 125//153
f 126//154 127//154 128//154
f 128//155 127//155 129//155
f 109//156 130//156 112//156
f 131//157 126//157 128//157
f 125//158 132//158 123//158
f 133//159 129//159 130//159
f 130//160 129//160 112//160
f 116//161 112//161 129//161
f 128//162 133//162 123//162
f 130//163 124//163 133//163
f 116//164 129//164 127//164
f 109//165 132//165 125//165
f 123//166 131//166 128//166
f 130//167 109//167 125//167
f 123//168 134//168 131//168
f 75//169 131//169 134//169
f 134//170 99//170 74//170
f 134//171 105//171 99//171
f 105//172 135//172 136//172
f 134//173 74//173 75//173
f 75//174 65//174 126//174
f 105//175 132//175 135//175
f 134//176 132//176 105//176
f 75//177 126//177 131//177
f 109//178 118//178 132//178
f 123//179 132//179 134//179
f 132//180 118//180 135//180
f 101//181 39//181 74//181
f 101//182 74//182 99//182
f 97//183 99//183 105//183
f 105//184 136//184 137//184
f 98//185 137//185 41//185
f 107//186 38//186 39//186
f 107//187 39//187 106//187
f 78//188 102//188 97//188
f 138//189 102//189 33//189
f 99//190 139//190 100//190
f 99//191 102//191 139//191
f 140//192 138//192 38//192
f 138//193 140//193 139//193
f 138//194 139//194 102//194
f 139//195 140//195 100//195
f 38//196 107//196 140//196
f 107//197 100//197 140//197
f 33//198 38//198 138//198
f 129//199 133//199 128//199
f 124//200 130//200 125//200
f 123//201 133//201 124//201
f 18//202 141//202 16//202
f 13//203 7//203 15//203
f 16//204 141//204 15//204
f 53//205 52//205 47//205
f 52//206 60//206 47//206
f 47//207 49//207 64//207
f 61//208 49//208 47//208
f 56//209 54//209 57//209
f 65//210 142//210 126//210
f 87//211 85//211 86//211
f 111//212 113//212 110//212
f 143//213 81//213 84//213
f 127//214 118//214 116//214
f 87//215 91//215 144//215
f 91//216 93//216 144//216
f 120//217 119//217 116//217
f 119//218 114//218 116//218
f 108//219 120//219 118//219
f 7//220 13//220 14//220
f 12//221 7//221 9//221
f 12//222 15//222 7//222
f 141//223 19//223 5//223
f 141//224 5//224 15//224
f 16//225 15//225 12//225
f 64//226 49//226 56//226
f 76//227 65//227 56//227
f 61//228 60//228 59//228
f 61//229 47//229 60//229
f 49//230 54//230 56//230
f 56//231 65//231 64//231
f 142//232 65//232 76//232
f 85//233 87//233 144//233
f 93//234 91//234 145//234
f 93//235 145//235 92//235
f 80//236 81//236 143//236
f 80//237 143//237 91//237
f 114//238 113//238 115//238
f 117//239 116//239 146//239
f 120//240 116//240 118//240
f 135//241 126//241 142//241
f 118//242 127//242 126//242
f 118//243 126//243 135//243
f 48//244 47//244 64//244
f 93//245 90//245 89//245
f 88//246 82//246 81//246
f 88//247 81//247 80//247
f 88//248 90//248 92//248
f 144//249 93//249 89//249
f 144//250 89//250 85//250
f 91//251 88//251 145//251
f 88//252 92//252 145//252
f 91//253 143//253 84//253
f 91//254 84//254 83//254
f 83//255 82//255 88//255
f 83//256 88//256 145//256
f 83//257 145//257 91//257
f 116//258 147//258 146//258
f 114//259 115//259 148//259
f 49//260 46//260 58//260
f 148//261 147//261 114//261
f 147//262 116//262 114//262
f 111//263 147//263 148//263
f 111//264 148//264 115//264
f 122//265 146//265 147//265
f 122//266 147//266 111//266
f 112//267 117//267 121//267
f 122//268 121//268 146//268
f 50//269 61//269 59//269
f 51//270 50//270 59//270
f 23//271 22//271 4//271
f 23//272 4//272 15//272
f 41//273 137//273 149//273
f 137//274 98//274 105//274
f 40//275 42//275 77//275
f 41//276 103//276 98//276
f 41//277 27//277 1//277
f 1//278 104//278 103//278
f 104//279 98//279 103//279
f 104//280 102//280 98//280
f 41//281 149//281 42//281
f 149//282 137//282 142//282
f 96//283 80//283 91//283
f 136//284 135//284 142//284
f 137//285 136//285 142//285
f 76//286 77//286 142//286
f 42//287 142//287 77//287
f 42//288 149//288 142//288
f 88//289 80//289 79//289
f 11//290 10//290 6//290
f 17//291 19//291 141//291
f 17//292 141//292 18//292
f 45//293 30//293 39//293
f 106//294 101//294 107//294
