<!DOCTYPE svg PUBLIC "-//W3C//DTD SVG 20010904//EN" "http://www.w3.org/TR/2001/REC-SVG-20010904/DTD/svg10.dtd">
<svg version="1.0" xmlns="http://www.w3.org/2000/svg" width="320px" height="240px" viewBox="0 0 3200 2400" preserveAspectRatio="xMidYMid meet">
<g id="layer101" fill="#181617" stroke="none">
 <path d="M0 1200 l0 -1200 1600 0 1600 0 0 1200 0 1200 -1600 0 -1600 0 0 -1200z"/>
 </g>
<g id="layer102" fill="#231f20" stroke="none">
 <path d="M0 1200 l0 -1200 1600 0 1600 0 0 1200 0 1200 -1600 0 -1600 0 0 -1200z m646 712 c-2 -4 0 -29 6 -55 5 -27 6 -60 2 -75 -6 -21 -9 -11 -14 48 -6 72 -5 90 6 90 3 0 3 -4 0 -8z m51 1 c-4 -3 -10 -3 -14 0 -3 4 0 7 7 7 7 0 10 -3 7 -7z m51 -92 l-2 -66 -5 70 -5 70 -7 -70 -6 -70 0 83 c1 71 3 81 14 66 8 -11 12 -43 11 -83z m120 92 c-10 -2 -26 -2 -35 0 -10 3 -2 5 17 5 19 0 27 -2 18 -5z m92 -4 c0 -5 -4 -7 -10 -4 -5 3 -10 1 -10 -4 0 -18 -3 -26 -17 -39 -7 -8 -10 -18 -7 -24 4 -7 2 -8 -4 -4 -9 5 -6 18 8 47 19 37 40 52 40 28z m139 0 c-8 -4 -12 -33 -12 -76 l0 -68 -4 60 c-2 33 -9 63 -16 67 -9 6 -8 8 3 9 8 0 4 5 -10 9 -22 7 -20 8 13 7 21 0 32 -4 26 -8z m388 -12 c2 -16 0 -18 -7 -8 -11 19 -47 21 -61 4 -8 -9 -8 -13 0 -13 6 0 11 -10 10 -22 0 -22 -1 -22 -9 -3 -6 15 -9 7 -9 -30 -1 -36 2 -46 9 -35 8 12 10 11 10 -6 0 -12 -6 -21 -15 -21 -20 0 -22 136 -2 138 6 1 1 4 -13 8 -19 6 -11 8 30 9 51 1 56 -1 57 -21z m133 19 c0 -8 -49 -13 -60 -6 -6 4 5 7 25 8 19 1 35 0 35 -2z m63 -3 c-13 -2 -23 -9 -23 -14 0 -6 5 -7 12 -3 7 4 8 3 4 -5 -4 -6 -12 -8 -18 -5 -6 4 -9 1 -6 -7 3 -8 1 -24 -3 -36 -5 -13 -4 -25 1 -28 6 -4 10 0 10 7 0 8 5 6 11 -5 6 -10 8 -25 6 -35 -3 -12 -5 -9 -7 8 l-2 25 -8 -25 c-8 -24 -8 -24 -9 -3 -1 12 -10 27 -21 33 -22 12 -25 8 -33 -40 -4 -21 -4 -20 -6 7 -1 23 6 37 28 56 17 14 28 27 25 30 -12 12 18 47 39 46 l22 -2 -22 -4z m87 -30 c0 -7 -4 -13 -10 -13 -5 0 -10 12 -10 28 0 21 2 24 10 12 5 -8 10 -21 10 -27z m37 30 c-4 -3 -10 -3 -14 0 -3 4 0 7 7 7 7 0 10 -3 7 -7z m37 -31 c-4 -21 -3 -24 5 -12 6 8 11 10 11 4 0 -5 -6 -19 -14 -29 -12 -17 -13 -14 -11 23 1 26 -1 39 -8 35 -6 -3 -7 -1 -3 6 13 20 26 1 20 -27z m117 31 c-18 -4 -21 -7 -11 -13 16 -10 23 -91 10 -123 -6 -16 -9 -5 -9 45 -1 55 -5 69 -21 81 -18 13 -17 14 18 14 22 0 28 -2 13 -4z m197 -2 c25 -15 -9 -18 -68 -5 l-55 12 55 1 c30 0 61 -3 68 -8z m110 2 c-10 -2 -26 -2 -35 0 -10 3 -2 5 17 5 19 0 27 -2 18 -5z m69 0 c-4 -3 -10 -3 -14 0 -3 4 0 7 7 7 7 0 10 -3 7 -7z m32 -10 c-7 -10 -14 -20 -16 -22 -1 -2 -1 6 0 18 1 11 8 21 15 21 12 0 12 -3 1 -17z m173 0 c11 -14 11 -16 -1 -9 -10 6 -12 4 -8 -10 9 -29 11 -119 4 -131 -9 -14 -72 -26 -97 -18 -30 9 -24 23 6 17 18 -3 25 -1 20 6 -4 8 3 8 26 1 18 -5 33 -9 34 -9 5 0 2 128 -3 136 -12 17 -51 23 -62 10 -6 -6 -12 -41 -14 -76 l-3 -65 -2 73 c-1 51 2 72 11 73 6 1 1 4 -13 8 -18 6 -10 8 32 9 41 1 60 -3 70 -15z m-1315 -15 c-3 -8 -6 -5 -6 6 -1 11 2 17 5 13 3 -3 4 -12 1 -19z m40 5 c-4 -3 -7 0 -7 7 0 7 3 10 7 7 3 -4 3 -10 0 -14z m-410 -48 c-5 -73 -17 -83 -17 -13 0 48 5 68 17 68 2 0 2 -25 0 -55z m740 18 c-3 -10 -5 -4 -5 12 0 17 2 24 5 18 2 -7 2 -21 0 -30z m495 13 c3 -13 2 -43 -2 -67 -7 -43 -8 -42 -9 19 -1 45 -4 61 -13 56 -7 -4 -8 -3 -4 4 11 19 23 14 28 -12z m155 2 c-3 -8 -6 -5 -6 6 -1 11 2 17 5 13 3 -3 4 -12 1 -19z m-1282 3 c3 -5 1 -12 -5 -16 -5 -3 -10 1 -10 9 0 18 6 21 15 7z m612 -88 c-2 -21 -4 -6 -4 32 0 39 2 55 4 38 2 -18 2 -50 0 -70z m600 75 c-3 -8 -6 -5 -6 6 -1 11 2 17 5 13 3 -3 4 -12 1 -19z m-1550 -65 c-2 -16 -4 -3 -4 27 0 30 2 43 4 28 2 -16 2 -40 0 -55z m440 60 c-4 -3 -7 0 -7 7 0 7 3 10 7 7 3 -4 3 -10 0 -14z m207 -7 c-3 -9 -10 -13 -16 -10 -5 3 -4 12 3 20 15 18 22 13 13 -10z m1193 -23 c-3 -10 -5 -2 -5 17 0 19 2 27 5 18 2 -10 2 -26 0 -35z m90 -30 c-2 -16 -4 -3 -4 27 0 30 2 43 4 28 2 -16 2 -40 0 -55z m-1328 34 c0 -21 -1 -21 -9 -2 -12 28 -12 37 0 30 6 -3 10 -16 9 -28z m1084 26 c-7 -2 -21 -2 -30 0 -10 3 -4 5 12 5 17 0 24 -2 18 -5z m34 -15 c-3 -8 -6 -5 -6 6 -1 11 2 17 5 13 3 -3 4 -12 1 -19z m-90 -5 c-4 -3 -7 0 -7 7 0 7 3 10 7 7 3 -4 3 -10 0 -14z m-1300 -7 c-3 -7 -1 -18 3 -22 11 -11 2 -54 -11 -54 -5 0 -9 20 -9 45 0 26 5 45 11 45 6 0 9 -6 6 -14z m110 -53 c-2 -16 -4 -5 -4 22 0 28 2 40 4 28 2 -13 2 -35 0 -50z m749 52 c-3 -23 -43 -49 -49 -32 -3 7 -6 5 -6 -5 -1 -9 4 -20 9 -23 6 -4 8 -11 5 -16 -4 -5 4 -10 17 -10 18 -1 19 -2 5 -6 -24 -6 -47 14 -47 43 0 17 10 31 33 44 38 24 36 23 33 5z m351 -2 c-4 -3 -7 0 -7 7 0 7 3 10 7 7 3 -4 3 -10 0 -14z m173 -18 c0 -5 -5 -3 -10 5 -5 8 -10 20 -10 25 0 6 5 3 10 -5 5 -8 10 -19 10 -25z m-1059 -6 c-5 -13 -10 -19 -10 -12 -1 15 10 45 15 40 3 -2 0 -15 -5 -28z m199 19 c0 -9 -2 -9 -39 -13 -22 -2 -23 -1 -8 10 19 13 47 16 47 3z m-580 -29 c-13 -23 -17 -24 -17 -4 0 8 4 15 9 15 5 0 6 5 2 12 -4 7 -3 8 4 4 9 -5 9 -13 2 -27z m322 -13 c-3 -5 -9 -1 -13 10 -12 31 -10 39 5 19 8 -11 12 -24 8 -29z m1062 18 c6 -24 2 -44 -8 -33 -9 11 -15 59 -7 59 5 0 12 -12 15 -26z m46 -16 c0 -5 -4 -8 -10 -8 -5 0 -10 10 -10 23 0 18 2 19 10 7 5 -8 10 -18 10 -22z m-1028 -3 c3 -13 1 -22 -3 -19 -5 3 -9 0 -9 -5 0 -6 7 -11 16 -11 8 0 12 -5 8 -11 -12 -21 -36 15 -28 44 8 33 10 34 16 2z m878 -1 c0 -8 -8 -14 -17 -14 -15 0 -16 -2 -3 -10 8 -5 10 -10 4 -10 -16 0 -23 10 -17 26 3 8 10 11 16 7 6 -4 8 0 4 11 -4 10 -3 15 3 11 6 -3 10 -13 10 -21z m287 4 c-3 -8 -6 -5 -6 6 -1 11 2 17 5 13 3 -3 4 -12 1 -19z m-1270 -10 c-3 -8 -6 -5 -6 6 -1 11 2 17 5 13 3 -3 4 -12 1 -19z m-322 -8 c3 -5 4 -10 1 -10 -3 0 -8 5 -11 10 -3 6 -4 10 -1 10 3 0 8 -4 11 -10z m978 4 c10 -11 -5 -34 -22 -33 -9 0 -11 3 -4 5 7 3 9 12 6 20 -5 14 8 20 20 8z m-999 -37 c-16 -9 -34 -1 -34 14 0 6 5 7 10 4 6 -3 10 -1 10 5 0 7 5 6 14 -2 12 -11 12 -14 0 -21z m1466 13 c0 -13 -7 -20 -20 -20 -11 0 -20 7 -20 15 0 9 6 12 15 9 8 -4 15 -1 15 5 0 6 2 11 5 11 3 0 5 -9 5 -20z m-1653 -5 c-5 -16 -67 -19 -67 -3 0 8 13 13 35 13 19 0 34 -4 32 -10z m103 -3 c0 -9 -11 -12 -32 -10 -43 4 -46 23 -3 23 22 0 35 -5 35 -13z m205 -2 c-5 -9 -55 -1 -55 9 0 4 13 6 30 3 16 -2 28 -8 25 -12z m135 5 c0 -10 -11 -15 -35 -15 -44 0 -46 17 -2 23 17 2 33 5 35 5 1 1 2 -5 2 -13z m93 -6 c-6 -6 -17 -8 -24 -3 -9 5 -8 9 7 14 23 9 31 3 17 -11z m277 6 c0 -5 -21 -10 -47 -10 -25 0 -48 5 -50 10 -2 6 18 10 47 10 27 0 50 -4 50 -10z m161 -2 c-36 -15 -82 -14 -88 2 -2 6 23 11 60 11 l62 1 -34 -14z m334 -2 c-8 -13 -65 -15 -65 -2 0 6 15 11 33 13 38 4 41 3 32 -11z m159 10 c7 -10 -27 -21 -66 -21 -39 0 -35 18 5 23 17 2 37 5 44 5 6 1 14 -2 17 -7z m-1235 -157 c2 -2 -8 -6 -21 -9 -14 -4 -40 0 -59 8 l-34 15 55 -5 c30 -3 57 -7 59 -9z m-134 -4 c7 -12 -22 -12 -50 0 -17 7 -15 9 12 9 17 1 35 -3 38 -9z m573 -12 c3 -13 -1 -16 -13 -12 -12 5 -13 9 -5 14 7 4 -21 5 -61 2 -41 -2 -80 -9 -86 -14 -9 -7 -14 -47 -15 -122 l-2 -111 -3 109 c-5 142 7 157 122 153 48 -2 60 -5 63 -19z m1285 -1 c15 -10 26 -23 24 -30 -1 -6 3 -11 9 -10 7 1 9 -8 6 -25 -3 -16 -7 -21 -9 -12 -3 8 -7 22 -10 30 -4 8 -6 18 -5 22 1 3 -17 13 -40 23 -63 25 -127 4 -149 -50 -6 -16 -8 -12 -8 16 -1 36 18 57 39 44 5 -3 12 0 15 6 10 15 98 6 128 -14z m-1936 6 c-4 -3 -10 -3 -14 0 -3 4 0 7 7 7 7 0 10 -3 7 -7z m253 -24 c0 -16 -2 -18 -14 -7 -8 7 -10 15 -5 16 5 2 6 9 3 14 -4 7 -2 8 4 4 7 -4 12 -16 12 -27z m180 -213 c-4 -238 -7 -218 -12 85 -2 99 1 156 7 156 7 0 8 -84 5 -241z m500 219 c0 -14 -2 -25 -4 -25 -2 0 -6 11 -8 25 -3 14 -1 25 3 25 5 0 9 -11 9 -25z m27 18 c-4 -3 -10 -3 -14 0 -3 4 0 7 7 7 7 0 10 -3 7 -7z m26 -13 c-3 -11 -7 -20 -9 -20 -2 0 -4 9 -4 20 0 11 4 20 9 20 5 0 7 -9 4 -20z m464 3 c-4 -3 -7 0 -7 7 0 7 3 10 7 7 3 -4 3 -10 0 -14z m50 10 c-4 -3 -10 -3 -14 0 -3 4 0 7 7 7 7 0 10 -3 7 -7z m-1537 -7 c0 -2 -16 -14 -35 -26 -19 -12 -32 -27 -29 -32 4 -6 2 -8 -4 -4 -5 3 -20 -6 -32 -21 -20 -25 -20 -25 -8 -3 19 31 108 102 108 86z m45 -13 c-16 -8 -37 -22 -46 -29 -13 -12 -16 -12 -16 1 0 8 2 13 5 11 2 -3 18 4 35 15 18 10 37 19 42 19 6 -1 -3 -8 -20 -17z m1492 -40 c-3 -10 -5 -2 -5 17 0 19 2 27 5 18 2 -10 2 -26 0 -35z m-37 -50 c-1 -60 -3 -74 -11 -60 -10 17 -4 137 7 137 2 0 4 -35 4 -77z m-1203 40 c-4 -3 -7 0 -7 7 0 7 3 10 7 7 3 -4 3 -10 0 -14z m683 -199 c0 -134 -3 -203 -10 -199 -17 11 -11 405 6 405 2 0 4 -93 4 -206z m27 159 c-3 -10 -5 -2 -5 17 0 19 2 27 5 18 2 -10 2 -26 0 -35z m1020 30 c-4 -3 -7 0 -7 7 0 7 3 10 7 7 3 -4 3 -10 0 -14z m-2081 -21 c-17 -16 -18 -16 -5 5 7 12 15 20 18 17 3 -2 -3 -12 -13 -22z m2068 -17 c-4 -8 -8 -15 -10 -15 -2 0 -4 7 -4 15 0 8 4 15 10 15 5 0 7 -7 4 -15z m-2091 -20 c-7 -21 -12 -19 -10 4 0 11 5 18 9 15 4 -3 5 -11 1 -19z m-62 -51 c-5 -21 -9 -30 -10 -19 -1 24 10 67 15 62 3 -2 0 -22 -5 -43z m1159 -119 c0 -92 -4 -156 -10 -160 -7 -4 -10 52 -10 160 0 108 3 164 10 160 6 -4 10 -68 10 -160z m945 117 l-38 -37 34 42 c19 23 36 39 38 37 3 -3 -12 -21 -34 -42z m-2058 11 c-4 -3 -7 0 -7 7 0 7 3 10 7 7 3 -4 3 -10 0 -14z m1665 -93 c17 -36 30 -67 29 -69 -2 -2 3 -8 11 -13 10 -8 10 -9 -2 -5 -8 2 -14 10 -12 16 1 6 -2 11 -6 11 -8 0 -23 26 -33 55 -1 6 -10 18 -19 28 -11 11 -15 27 -12 45 3 16 7 21 10 12 2 -8 18 -44 34 -80z m-81 57 c-10 -9 -11 -8 -5 6 3 10 9 15 12 12 3 -3 0 -11 -7 -18z m529 20 c0 -2 -10 -12 -22 -23 l-23 -19 19 23 c18 21 26 27 26 19z m-2123 -104 c-2 -21 -4 -6 -4 32 0 39 2 55 4 38 2 -18 2 -50 0 -70z m2023 73 c0 -2 -8 -10 -17 -17 -16 -13 -17 -12 -4 4 13 16 21 21 21 13z m-1263 -23 c-4 -3 -7 0 -7 7 0 7 3 10 7 7 3 -4 3 -10 0 -14z m809 -11 c-17 -16 -18 -16 -5 5 7 12 15 20 18 17 3 -2 -3 -12 -13 -22z m494 3 c-7 -8 -16 -15 -21 -15 -5 0 -1 8 9 18 20 22 31 19 12 -3z m-1327 3 c-2 -5 -31 -8 -64 -8 l-59 0 -2 -107 -2 -108 -3 105 c-3 81 -1 107 10 115 16 11 128 14 120 3z m867 -8 c-6 -11 -13 -20 -16 -20 -2 0 0 9 6 20 6 11 13 20 16 20 2 0 0 -9 -6 -20z m-830 -10 c0 -5 -2 -10 -4 -10 -3 0 -8 5 -11 10 -3 6 -1 10 4 10 6 0 11 -4 11 -10z m-797 -69 c-6 -9 -13 6 -18 40 l-6 34 14 -35 c7 -19 12 -37 10 -39z m1985 49 c-7 -11 -17 -20 -22 -20 -5 0 -1 9 9 20 10 11 20 20 22 20 2 0 -2 -9 -9 -20z m21 -38 c-19 -21 -36 -37 -38 -35 -5 3 59 73 67 73 2 0 -11 -17 -29 -38z m-463 -16 c-14 -24 -23 -46 -21 -50 3 -3 2 -4 -2 -1 -3 3 -13 -3 -21 -13 -8 -9 -6 -4 3 12 10 16 26 44 37 63 11 18 22 33 25 33 3 0 -7 -20 -21 -44z m38 4 c-10 -16 -20 -28 -22 -26 -4 5 28 56 35 56 2 0 -4 -13 -13 -30z m-1547 -17 c-4 -3 -7 0 -7 7 0 7 3 10 7 7 3 -4 3 -10 0 -14z m1910 -5 c-3 -8 -6 -5 -6 6 -1 11 2 17 5 13 3 -3 4 -12 1 -19z m-1906 -21 c-8 -11 -6 -18 9 -32 11 -10 20 -14 20 -10 0 4 9 0 20 -10 11 -10 20 -23 20 -29 0 -6 -5 -4 -10 4 -5 8 -10 11 -10 6 0 -6 -16 5 -35 24 -26 26 -32 37 -24 47 6 7 14 13 16 13 3 0 0 -6 -6 -13z m1717 1 c-2 -4 6 -13 16 -21 13 -9 15 -16 8 -21 -6 -4 -18 7 -27 25 -10 19 -12 30 -5 27 6 -2 10 -7 8 -10z m-207 -15 c-5 -10 -17 -27 -26 -38 -16 -19 -17 -19 -3 5 26 46 29 50 34 50 3 0 0 -8 -5 -17z m410 -8 l8 30 -2 -30 c-3 -44 43 -80 97 -78 63 3 85 7 80 15 -3 4 0 16 5 25 9 15 10 12 11 -15 0 -23 -4 -32 -12 -29 -7 2 -24 0 -38 -5 -68 -25 -172 30 -169 90 2 26 2 26 7 -3 l5 -30 8 30z m-1534 -32 c0 -40 -1 -43 -7 -21 -7 23 -4 68 5 68 1 0 2 -21 2 -47z m1377 -1 c3 -5 -1 -9 -9 -9 -8 0 -12 4 -9 9 3 4 7 8 9 8 2 0 6 -4 9 -8z m-474 -6 c0 -2 -8 -10 -17 -17 -16 -13 -17 -12 -4 4 13 16 21 21 21 13z m136 -15 c-17 -19 -17 -20 6 -24 17 -3 14 -5 -11 -6 l-34 -1 23 25 c27 29 42 34 16 6z m-1066 5 c0 -2 -7 -7 -16 -10 -8 -3 -12 -2 -9 4 6 10 25 14 25 6z m718 -21 c97 -1 179 -3 182 -4 34 -18 -239 -27 -320 -11 -32 6 -47 5 -53 -3 -6 -8 -7 -6 -3 6 3 9 1 17 -4 17 -6 0 -10 5 -10 11 0 8 5 7 15 -1 11 -9 67 -13 193 -15z m-874 -15 c23 0 56 4 74 9 21 6 41 6 55 0 20 -8 19 -9 -5 -4 -16 3 -28 1 -28 -5 0 -11 -113 -13 -174 -2 -22 4 -41 13 -43 19 -3 9 6 9 37 -2 24 -8 61 -15 84 -15z m1605 3 c2 -2 -13 -2 -35 -2 -23 1 -30 3 -16 6 14 3 20 9 15 16 -4 7 2 5 13 -3 10 -8 21 -16 23 -17z m-1069 6 c0 -5 -46 -8 -102 -7 -88 1 -94 2 -43 7 95 9 145 9 145 0z m547 -11 c-3 -8 -6 -5 -6 6 -1 11 2 17 5 13 3 -3 4 -12 1 -19z m-520 5 c-4 -3 -10 -3 -14 0 -3 4 0 7 7 7 7 0 10 -3 7 -7z m710 0 c-4 -3 -10 -3 -14 0 -3 4 0 7 7 7 7 0 10 -3 7 -7z m-854 -220 c-7 -2 -21 -2 -30 0 -10 3 -4 5 12 5 17 0 24 -2 18 -5z m235 0 c-15 -2 -42 -2 -60 0 -18 2 -6 4 27 4 33 0 48 -2 33 -4z m-310 -14 c-24 -13 -23 -30 4 -65 l22 -29 -22 19 c-12 10 -24 27 -28 38 -6 20 11 48 30 48 6 0 3 -5 -6 -11z m387 0 c-22 -4 -80 -7 -130 -6 l-90 1 100 6 c152 9 167 9 120 -1z m-230 -9 c-3 -5 -14 -10 -23 -9 -14 0 -13 2 3 9 27 11 27 11 20 0z m335 0 c0 -5 -19 -10 -42 -9 -33 0 -38 2 -23 9 28 12 65 12 65 0z m127 -17 c51 -9 91 -18 89 -20 -6 -6 -179 19 -196 28 -23 13 1 11 107 -8z m-507 3 c0 -3 -5 -8 -12 -12 -7 -4 -8 -3 -4 4 7 12 16 16 16 8z m-23 -48 c-3 -8 -6 -5 -6 6 -1 11 2 17 5 13 3 -3 4 -12 1 -19z m670 16 c-3 -3 -12 -4 -19 -1 -8 3 -5 6 6 6 11 1 17 -2 13 -5z m50 -10 c-3 -3 -12 -4 -19 -1 -8 3 -5 6 6 6 11 1 17 -2 13 -5z m-763 -40 c3 -8 2 -12 -4 -9 -6 3 -10 10 -10 16 0 14 7 11 14 -7z m61 -14 c3 -5 4 -10 1 -10 -3 0 -8 5 -11 10 -3 6 -4 10 -1 10 3 0 8 -4 11 -10z m5 -37 c0 -7 -39 17 -46 28 -3 6 5 3 20 -6 14 -10 26 -19 26 -22z m55 -23 c3 0 4 4 0 9 -3 5 24 -7 60 -27 64 -37 85 -59 43 -47 -13 4 -28 13 -34 21 -6 7 -15 10 -19 6 -5 -4 -4 -1 0 7 6 11 4 13 -9 8 -11 -5 -15 -3 -10 4 4 7 1 10 -7 7 -14 -5 -69 17 -69 28 0 2 9 0 19 -6 11 -5 22 -10 26 -10z m251 -117 c-6 -6 -116 39 -116 48 0 4 27 -4 60 -18 33 -15 58 -28 56 -30z m44 -13 c8 -5 11 -10 5 -10 -5 0 -17 5 -25 10 -8 5 -10 10 -5 10 6 0 17 -5 25 -10z"/>
 <path d="M1625 1840 c-3 -5 -1 -10 4 -10 6 0 11 5 11 10 0 6 -2 10 -4 10 -3 0 -8 -4 -11 -10z"/>
 <path d="M1780 1820 c-8 -5 -10 -10 -5 -10 6 0 17 5 25 10 8 5 11 10 5 10 -5 0 -17 -5 -25 -10z"/>
 <path d="M2455 1569 c-11 -17 1 -21 15 -4 8 9 8 15 2 15 -6 0 -14 -5 -17 -11z"/>
 <path d="M595 1140 c3 -5 8 -10 11 -10 3 0 2 5 -1 10 -3 6 -8 10 -11 10 -3 0 -2 -4 1 -10z"/>
 </g>
<g id="layer103" fill="#2d2a2b" stroke="none">
 <path d="M0 1200 l0 -1200 1600 0 1600 0 0 1200 0 1200 -1600 0 -1600 0 0 -1200z m1285 647 c10 -40 25 -78 34 -85 14 -11 14 -14 1 -22 -10 -6 -19 -5 -26 3 -14 15 -36 94 -35 125 1 37 -18 25 -24 -15 -8 -54 -27 -113 -38 -120 -16 -10 -29 13 -18 33 6 11 20 51 31 91 17 59 23 70 38 66 13 -3 24 -25 37 -76z m-545 54 c5 -11 10 -47 10 -80 0 -34 4 -61 10 -61 6 0 10 -7 10 -15 0 -10 -10 -15 -29 -15 -30 0 -54 21 -33 28 8 2 12 29 12 72 0 61 -2 69 -21 75 -12 4 -26 2 -33 -5 -13 -13 -15 -132 -2 -141 16 -12 -5 -29 -35 -29 -19 0 -29 5 -29 15 0 8 5 15 10 15 6 0 10 24 10 54 0 30 4 66 10 80 8 23 15 26 54 26 35 0 48 -5 56 -19z m132 7 c-14 -14 -16 -118 -2 -118 6 0 10 7 10 16 0 9 9 27 20 41 11 14 20 31 20 38 0 7 7 18 16 26 25 21 36 -7 31 -83 -3 -41 0 -69 6 -71 6 -2 8 -8 4 -14 -8 -12 -57 -5 -57 9 0 5 4 7 9 4 5 -4 11 23 13 58 1 35 0 62 -4 60 -4 -3 -19 -32 -34 -65 -26 -58 -54 -86 -74 -74 -6 3 -10 11 -10 16 0 6 5 7 10 4 6 -4 10 23 10 74 0 54 -4 81 -12 84 -7 3 3 6 22 6 26 1 31 -2 22 -11z m231 5 c-16 -6 -18 -153 -3 -153 6 0 10 -7 10 -15 0 -10 -11 -15 -35 -15 -24 0 -35 5 -35 15 0 8 5 15 10 15 15 0 13 147 -2 153 -7 3 5 5 27 5 22 0 34 -2 28 -5z m390 -13 c-3 -11 -10 -20 -15 -20 -5 0 -6 5 -3 10 4 6 -5 10 -19 10 -22 0 -26 -4 -26 -30 0 -25 4 -30 25 -30 14 0 25 -4 25 -10 0 -5 -11 -12 -25 -16 -32 -8 -37 -54 -6 -54 11 0 21 5 23 12 2 6 9 9 15 7 7 -3 8 -12 2 -26 -7 -19 -16 -23 -53 -23 -42 0 -74 19 -48 28 17 5 16 149 0 155 -7 3 15 6 49 6 56 1 61 -1 56 -19z m120 13 c-15 -5 -18 -73 -4 -73 5 0 18 17 28 38 13 23 28 38 43 40 l22 4 -26 -35 c-27 -35 -33 -57 -17 -57 14 0 23 -37 16 -59 -6 -20 -52 -41 -91 -41 -25 0 -45 21 -26 28 17 5 16 149 0 155 -7 3 5 5 27 5 22 0 34 -2 28 -5z m237 -8 c20 -24 3 -63 -40 -90 -45 -28 -49 -39 -20 -55 23 -12 40 -6 40 16 0 18 16 18 23 1 9 -23 -8 -38 -41 -39 -39 -1 -62 17 -62 48 0 26 42 60 60 49 6 -4 10 -3 9 2 -1 4 1 16 5 26 12 25 0 47 -25 47 -12 0 -23 -8 -26 -20 -7 -28 -23 -25 -23 5 0 23 4 25 44 25 26 0 48 -6 56 -15z m123 3 c-11 -18 -11 -142 0 -149 17 -12 -3 -29 -34 -29 -19 0 -29 5 -29 15 0 8 5 15 10 15 15 0 13 147 -2 153 -7 3 4 6 25 6 28 1 36 -2 30 -11z m191 -3 c22 -23 30 -78 16 -119 -9 -28 -19 -37 -48 -46 -54 -15 -92 -13 -92 5 0 8 5 15 10 15 15 0 13 147 -2 153 -7 3 13 6 44 6 38 1 61 -4 72 -14z m108 7 c-22 -15 -2 -42 30 -42 27 0 30 3 26 25 -5 22 -2 25 23 25 25 0 28 -3 19 -17 -13 -25 -50 -139 -50 -158 0 -24 -37 -18 -43 8 -17 70 -40 144 -49 155 -8 9 -3 12 23 12 22 0 29 -3 21 -8z m272 -14 c22 -31 21 -110 -1 -137 -21 -24 -91 -37 -113 -21 -11 9 -12 13 -2 17 16 6 16 135 0 151 -9 9 1 12 44 12 47 0 59 -4 72 -22z m-1660 -298 c33 0 53 -21 60 -60 5 -27 4 -30 -3 -14 -5 12 -23 29 -40 37 -55 27 -101 29 -173 7 -55 -17 -74 -29 -112 -71 -55 -61 -69 -108 -64 -206 3 -60 8 -78 33 -114 44 -62 93 -84 185 -83 98 0 159 32 173 89 2 11 5 -4 6 -32 1 -49 -1 -53 -26 -60 -16 -4 -80 -8 -143 -8 -130 0 -159 11 -224 86 -45 53 -60 111 -53 205 5 68 9 80 42 120 21 25 54 56 75 69 43 27 135 46 199 39 24 -2 54 -4 65 -4z m454 -23 c3 -16 1 -17 -18 -7 -11 6 -51 10 -88 9 -53 -3 -68 -7 -68 -19 -3 -43 -5 -249 -5 -348 l1 -113 65 4 c41 2 71 9 82 19 17 15 18 15 20 -10 l2 -27 -122 4 c-67 2 -116 5 -109 8 19 7 17 479 -2 490 -8 4 43 8 112 8 115 0 127 -2 130 -18z m341 7 c-12 -15 -14 -67 -11 -291 l2 -183 68 0 c45 0 75 5 90 16 21 15 22 14 22 -14 l0 -29 -202 0 c-203 0 -217 3 -218 36 0 12 3 12 12 3 7 -7 43 -12 90 -12 l78 0 2 178 c3 225 1 281 -11 295 -7 9 3 12 39 12 35 0 46 -3 39 -11z m525 3 c-11 -6 -14 -32 -14 -108 0 -81 4 -108 22 -147 31 -67 103 -183 132 -215 l25 -27 -32 0 c-25 0 -33 5 -35 20 -1 11 -3 29 -4 39 -1 11 -5 18 -9 15 -4 -2 -19 20 -34 49 -15 28 -35 63 -45 77 -9 14 -20 33 -23 43 -4 9 -10 17 -14 17 -13 -1 -145 -239 -138 -250 4 -6 -12 -10 -39 -10 l-46 0 42 54 c35 46 45 53 58 43 13 -10 13 -10 2 5 -12 15 -7 27 34 95 l48 78 0 108 c1 71 -3 110 -11 115 -6 4 13 7 42 7 32 0 48 -3 39 -8z m419 -9 c49 -34 56 -49 57 -114 0 -66 -14 -94 -75 -144 -16 -13 -49 -43 -72 -66 -51 -49 -56 -87 -19 -131 21 -24 31 -28 72 -27 38 1 52 6 71 28 l23 27 0 -30 c0 -28 -2 -30 -54 -36 -101 -13 -166 31 -166 112 0 58 27 98 112 167 80 64 101 139 53 190 -45 49 -151 33 -175 -27 -7 -19 -9 -16 -9 17 -1 30 2 37 15 32 8 -3 12 -2 9 3 -7 12 18 18 78 20 36 1 58 -5 80 -21z m-1304 -271 c1 -4 -8 -3 -18 3 -11 5 -48 10 -82 10 -34 0 -59 3 -55 7 3 4 26 6 49 4 24 -1 54 2 68 7 23 9 36 -1 38 -31z m216 -443 c66 -8 172 -26 235 -39 117 -25 105 -25 -80 1 -163 22 -397 29 -445 13 -71 -25 -57 -74 40 -144 60 -42 101 -64 232 -122 92 -40 70 -39 -38 3 -123 47 -240 104 -234 114 3 4 -3 7 -13 6 -11 -1 -16 5 -14 16 1 9 -2 19 -8 23 -6 3 -7 0 -4 -9 9 -23 -4 -20 -45 11 -69 53 -93 95 -68 120 33 34 204 36 442 7z m382 -70 c-3 -3 -12 -4 -19 -1 -8 3 -5 6 6 6 11 1 17 -2 13 -5z m40 -11 c-4 -3 -10 -3 -14 0 -3 4 0 7 7 7 7 0 10 -3 7 -7z m-100 -320 c-4 -3 -10 -3 -14 0 -3 4 0 7 7 7 7 0 10 -3 7 -7z m40 -10 c-4 -3 -10 -3 -14 0 -3 4 0 7 7 7 7 0 10 -3 7 -7z m40 -10 c-4 -3 -10 -3 -14 0 -3 4 0 7 7 7 7 0 10 -3 7 -7z"/>
 <path d="M1600 1790 c0 -27 3 -31 23 -28 16 2 22 10 22 28 0 18 -6 26 -22 28 -20 3 -23 -1 -23 -28z"/>
 <path d="M2119 1903 c-25 -4 -26 -7 -27 -74 l-2 -70 33 3 33 2 -3 60 c-2 55 -5 88 -7 85 -1 -1 -13 -4 -27 -6z"/>
 <path d="M2273 1846 c3 -8 9 -31 13 -50 7 -38 24 -50 24 -17 0 10 3 33 6 50 6 29 4 31 -21 31 -19 0 -26 -4 -22 -14z"/>
 <path d="M2498 1903 c-27 -4 -28 -6 -28 -74 0 -62 2 -69 20 -69 28 0 42 33 38 95 -2 30 -3 54 -3 54 0 -1 -12 -4 -27 -6z"/>
 <path d="M2014 1138 c-4 -7 -3 -8 4 -4 7 4 12 9 12 12 0 8 -9 4 -16 -8z"/>
 </g>
<g id="layer104" fill="#423e40" stroke="none">
 <path d="M0 1200 l0 -1200 1600 0 1600 0 0 1200 0 1200 -1600 0 -1600 0 0 -1200z m728 714 c19 -13 22 -24 22 -85 0 -39 4 -69 10 -69 6 0 10 -7 10 -15 0 -10 -10 -15 -29 -15 -30 0 -54 21 -33 28 19 6 16 127 -4 143 -11 9 -20 10 -32 2 -13 -8 -17 -25 -17 -74 0 -35 4 -67 9 -70 16 -12 -5 -29 -35 -29 -19 0 -29 5 -29 15 0 8 5 15 10 15 6 0 10 28 10 63 0 74 18 107 58 107 15 0 38 -7 50 -16z m559 -68 c12 -44 28 -83 35 -88 10 -6 10 -10 -1 -17 -21 -13 -41 -2 -42 23 0 11 -9 46 -19 76 l-18 55 -6 -40 c-17 -102 -36 -139 -58 -117 -8 8 -8 15 -1 24 6 7 19 48 30 91 15 66 21 77 38 75 15 -2 24 -21 42 -82z m558 64 c25 -28 12 -66 -30 -92 -42 -24 -48 -58 -10 -58 16 0 25 6 25 15 0 19 16 19 24 0 7 -20 -20 -45 -49 -45 -31 0 -55 25 -55 59 0 21 9 32 40 50 42 24 49 41 25 61 -18 15 -45 6 -45 -15 0 -8 -4 -15 -10 -15 -15 0 -12 47 3 53 28 12 65 6 82 -13z m-969 -3 c-13 -10 -17 -24 -14 -67 3 -51 4 -53 16 -30 25 52 59 104 70 108 17 5 25 -42 19 -103 -3 -35 -2 -55 6 -58 21 -7 -3 -24 -28 -19 -24 4 -36 22 -15 22 6 0 10 26 10 58 l0 57 -34 -64 c-36 -69 -61 -91 -79 -71 -9 10 -9 14 1 17 16 6 17 134 0 151 -9 9 -3 12 27 12 34 0 37 -2 21 -13z m226 1 c-15 -15 -16 -148 -2 -148 6 0 10 -7 10 -15 0 -10 -11 -15 -35 -15 -24 0 -35 5 -35 15 0 8 5 15 10 15 14 0 13 133 -2 148 -9 9 -3 12 27 12 30 0 36 -3 27 -12z m398 -8 c0 -11 -7 -20 -15 -20 -8 0 -15 5 -15 10 0 6 -9 10 -20 10 -16 0 -20 -7 -20 -30 0 -25 4 -30 25 -30 14 0 25 -4 25 -10 0 -5 -11 -12 -25 -16 -32 -8 -36 -54 -5 -54 11 0 20 5 20 10 0 6 7 10 15 10 20 0 19 -36 -1 -44 -27 -10 -92 -7 -100 6 -4 6 -2 14 4 16 15 5 17 142 2 142 -5 0 -10 5 -10 10 0 6 27 10 60 10 53 0 60 -2 60 -20z m120 10 c0 -5 -4 -10 -10 -10 -5 0 -10 -13 -10 -30 0 -41 14 -38 37 8 19 35 63 58 63 33 0 -6 -4 -11 -9 -11 -5 0 -16 -14 -25 -31 -14 -27 -14 -33 -1 -46 19 -18 19 -57 1 -72 -21 -18 -102 -26 -111 -10 -5 7 -4 14 3 17 16 5 16 134 0 150 -9 9 -4 12 25 12 20 0 37 -4 37 -10z m353 -2 c-11 -18 -11 -142 0 -149 17 -12 -3 -29 -34 -29 -19 0 -29 5 -29 15 0 8 5 15 10 15 14 0 13 133 -2 148 -9 9 -4 12 26 12 27 0 35 -3 29 -12z m195 -1 c16 -19 24 -88 14 -122 -6 -22 -18 -33 -43 -42 -50 -17 -99 -16 -99 2 0 8 5 15 10 15 14 0 13 133 -2 148 -9 9 2 12 49 12 37 0 65 -5 71 -13z m104 0 c-16 -19 1 -39 29 -35 18 2 23 9 22 26 -2 18 2 22 27 22 17 0 30 -4 30 -10 0 -5 -3 -10 -8 -10 -4 0 -18 -38 -32 -85 -19 -64 -29 -85 -42 -85 -11 0 -21 13 -27 38 -6 20 -16 58 -23 85 -7 26 -16 47 -20 47 -4 0 -8 5 -8 10 0 6 14 10 31 10 25 0 29 -3 21 -13z m270 -4 c25 -23 26 -123 0 -146 -23 -21 -92 -31 -112 -17 -11 9 -12 13 -2 17 16 6 16 135 0 151 -20 20 91 16 114 -5z m-1615 -316 c17 -17 30 -83 15 -73 -7 4 -12 13 -12 21 0 38 -128 58 -211 33 -92 -27 -169 -136 -169 -239 0 -109 34 -176 103 -207 126 -56 278 -18 290 71 2 18 4 3 3 -33 l-1 -65 -45 -8 c-70 -13 -230 -3 -267 17 -50 25 -112 96 -125 141 -14 50 -13 138 1 190 18 67 110 144 196 165 52 12 206 3 222 -13z m406 6 c2 -5 7 -21 10 -38 6 -26 5 -27 -4 -8 -13 25 -37 33 -98 33 -73 0 -81 -14 -81 -141 l0 -109 63 4 c34 2 69 5 77 7 9 3 16 -5 18 -18 3 -21 1 -22 -26 -12 -16 6 -52 9 -78 7 l-49 -3 0 -105 0 -105 65 2 c53 2 68 6 83 24 17 21 17 21 17 -12 l0 -34 -121 3 c-91 2 -119 6 -110 15 12 12 16 454 3 473 -4 6 -13 13 -21 16 -8 2 44 5 117 6 72 1 133 -1 135 -5z m367 -3 c-33 -8 -36 -30 -32 -277 l4 -203 67 0 c71 0 96 11 104 45 3 11 5 -1 6 -26 l1 -46 -205 0 c-113 0 -207 3 -209 6 -2 3 -6 18 -10 34 l-7 28 21 -21 c16 -16 33 -20 94 -20 l74 0 4 203 c4 244 2 266 -24 276 -11 4 14 7 59 7 43 0 67 -2 53 -6z m535 2 c-36 -7 -45 -32 -45 -125 0 -83 3 -95 36 -161 20 -39 47 -85 60 -103 13 -17 24 -35 24 -39 0 -5 14 -23 32 -41 l32 -33 -37 0 c-32 0 -37 3 -38 23 0 12 -18 51 -39 87 -21 36 -48 84 -60 108 -17 35 -24 41 -35 32 -8 -7 -17 -21 -20 -31 -4 -11 -22 -43 -41 -72 -19 -28 -34 -55 -34 -60 0 -4 -10 -21 -21 -36 -12 -16 -18 -34 -15 -40 5 -7 -9 -11 -42 -11 l-49 0 39 42 c21 23 38 45 38 50 0 5 11 24 24 41 13 18 38 57 55 88 27 49 32 68 36 148 5 102 1 119 -28 130 -11 4 18 7 64 7 46 0 75 -1 64 -4z m387 -12 c45 -26 69 -70 67 -122 -2 -56 -30 -96 -107 -159 -94 -77 -114 -128 -67 -174 41 -42 135 -31 155 18 7 19 9 17 9 -15 1 -36 0 -37 -44 -44 -64 -9 -114 3 -147 36 -24 25 -28 36 -28 85 0 57 0 57 62 116 34 32 65 59 70 59 4 0 19 18 33 40 33 52 33 96 -2 132 -52 54 -165 29 -176 -40 -2 -17 -5 -9 -6 20 -1 42 2 47 27 56 46 17 118 14 154 -8z m-1109 -711 c113 -13 368 -59 392 -70 22 -10 5 -9 -154 16 -236 36 -478 44 -530 16 -74 -40 39 -142 272 -245 32 -14 64 -26 72 -26 7 0 17 -4 20 -10 10 -16 -8 -12 -97 21 -188 69 -360 171 -395 236 -16 31 -16 34 -1 50 10 9 37 20 60 24 50 9 241 3 361 -12z m454 -85 c-3 -3 -12 -4 -19 -1 -8 3 -5 6 6 6 11 1 17 -2 13 -5z m-150 -311 c-4 -3 -10 -3 -14 0 -3 4 0 7 7 7 7 0 10 -3 7 -7z m40 -10 c-4 -3 -10 -3 -14 0 -3 4 0 7 7 7 7 0 10 -3 7 -7z m40 -10 c-4 -3 -10 -3 -14 0 -3 4 0 7 7 7 7 0 10 -3 7 -7z m40 -10 c-4 -3 -10 -3 -14 0 -3 4 0 7 7 7 7 0 10 -3 7 -7z m50 -10 c-4 -3 -10 -3 -14 0 -3 4 0 7 7 7 7 0 10 -3 7 -7z"/>
 <path d="M1600 1790 c0 -27 3 -31 23 -28 16 2 22 10 22 28 0 18 -6 26 -22 28 -20 3 -23 -1 -23 -28z"/>
 <path d="M2092 1830 c-2 -68 -1 -71 21 -68 54 8 60 130 6 136 -26 3 -26 2 -27 -68z"/>
 <path d="M2283 1820 c9 -67 23 -70 29 -5 2 32 0 40 -16 43 -17 4 -18 -1 -13 -38z"/>
 <path d="M2470 1830 c0 -63 2 -70 20 -70 25 0 40 29 40 77 0 42 -14 63 -42 63 -16 0 -18 -9 -18 -70z"/>
 </g>
<g id="layer105" fill="#504e4f" stroke="none">
 <path d="M0 1200 l0 -1200 1600 0 1600 0 0 1200 0 1200 -1600 0 -1600 0 0 -1200z m731 720 c16 -9 19 -22 19 -85 0 -43 4 -75 10 -75 6 0 10 -7 10 -15 0 -10 -10 -15 -29 -15 -30 0 -54 21 -33 28 8 2 12 27 12 67 0 70 -15 94 -47 76 -14 -8 -18 -22 -18 -73 0 -35 4 -66 9 -69 16 -12 -5 -29 -35 -29 -19 0 -29 5 -29 15 0 8 5 15 10 15 6 0 10 28 10 63 0 76 18 107 61 107 17 0 39 -5 50 -10z m556 -74 c12 -44 28 -83 35 -88 10 -6 10 -10 -1 -17 -25 -16 -36 -2 -57 77 l-21 77 -8 -50 c-8 -57 -30 -115 -42 -115 -4 0 -15 5 -23 10 -13 8 -13 11 2 22 14 12 28 54 45 141 4 21 10 27 26 25 17 -2 26 -18 44 -82z m557 65 c26 -29 16 -63 -26 -90 -45 -29 -51 -61 -13 -61 16 0 25 6 25 15 0 19 16 19 24 0 7 -19 -19 -45 -45 -45 -39 0 -59 19 -59 55 0 30 5 37 40 55 42 21 50 39 26 59 -16 14 -46 4 -46 -15 0 -8 -4 -14 -10 -14 -15 0 -12 47 3 53 27 12 65 6 81 -12z m-961 -3 c-12 -15 -24 -108 -14 -108 3 0 12 12 18 28 25 54 53 92 69 92 13 0 15 -11 13 -74 -2 -49 1 -79 9 -89 15 -18 1 -26 -35 -19 -22 4 -33 22 -13 22 6 0 10 24 10 53 l0 52 -35 -61 c-36 -64 -60 -83 -79 -63 -8 8 -8 13 2 16 15 6 17 143 2 143 -5 0 -10 5 -10 10 0 6 16 10 36 10 28 0 34 -3 27 -12z m227 2 c0 -5 -4 -10 -10 -10 -6 0 -10 -30 -10 -70 0 -40 4 -70 10 -70 6 0 10 -7 10 -15 0 -10 -11 -15 -35 -15 -24 0 -35 5 -35 15 0 8 5 15 10 15 6 0 10 30 10 70 0 40 -4 70 -10 70 -5 0 -10 5 -10 10 0 6 16 10 35 10 19 0 35 -4 35 -10z m388 -12 c-4 -25 -28 -37 -28 -14 0 9 -8 16 -20 16 -16 0 -20 -7 -20 -30 0 -25 4 -30 25 -30 16 0 25 -6 25 -15 0 -9 -9 -15 -25 -15 -20 0 -25 -5 -25 -25 0 -18 5 -25 20 -25 11 0 20 5 20 10 0 6 7 10 15 10 20 0 19 -36 -1 -44 -27 -10 -92 -7 -100 6 -4 6 -2 14 4 16 15 5 17 142 2 142 -5 0 -10 5 -10 10 0 6 27 10 61 10 56 0 60 -1 57 -22z m122 12 c0 -5 -4 -10 -10 -10 -12 0 -13 -47 -1 -54 5 -3 18 11 28 32 19 35 63 58 63 33 0 -6 -4 -11 -9 -11 -5 0 -16 -13 -24 -30 -13 -25 -13 -31 -1 -41 18 -15 18 -63 0 -78 -21 -18 -102 -26 -111 -10 -5 7 -4 14 3 17 15 5 17 142 2 142 -5 0 -10 5 -10 10 0 6 16 10 35 10 19 0 35 -4 35 -10z m354 -12 c-11 -34 -12 -132 -1 -139 17 -12 -3 -29 -34 -29 -19 0 -29 5 -29 15 0 8 5 15 10 15 6 0 10 30 10 70 0 40 -4 70 -10 70 -5 0 -10 5 -10 10 0 6 16 10 36 10 32 0 35 -2 28 -22z m197 5 c19 -23 19 -128 -1 -147 -8 -9 -41 -18 -72 -22 -50 -6 -58 -4 -58 10 0 9 5 16 10 16 6 0 10 30 10 70 0 40 -4 70 -10 70 -5 0 -10 5 -10 10 0 6 26 10 59 10 42 0 62 -5 72 -17z m103 -9 c-6 -23 -4 -25 22 -22 23 2 29 7 27 26 -2 18 2 22 27 22 17 0 30 -4 30 -10 0 -5 -3 -10 -8 -10 -6 0 -19 -41 -49 -152 -2 -10 -13 -18 -23 -18 -14 0 -22 11 -30 43 -9 34 -33 106 -48 139 -2 5 10 8 27 8 29 0 31 -2 25 -26z m268 9 c25 -23 26 -123 0 -146 -23 -21 -92 -31 -112 -17 -11 9 -12 13 -2 17 15 6 17 143 2 143 -5 0 -10 5 -10 10 0 17 101 12 122 -7z m-1652 -301 l45 -7 11 -55 c9 -41 9 -50 1 -35 -7 11 -25 32 -41 47 -24 24 -36 28 -88 28 -80 0 -130 -16 -177 -56 -65 -56 -85 -105 -86 -204 0 -75 3 -90 28 -132 39 -67 94 -91 204 -86 96 4 131 23 150 84 l11 39 1 -67 1 -66 -76 -7 c-120 -12 -205 -2 -257 28 -97 57 -140 168 -114 293 32 150 182 227 387 196z m455 -43 c4 -22 4 -43 1 -46 -3 -4 -6 3 -6 15 0 30 -38 52 -90 52 -25 0 -56 -7 -68 -16 -20 -14 -22 -23 -22 -119 l0 -103 29 -7 c33 -7 98 3 107 16 9 15 24 -1 24 -25 0 -22 -1 -22 -65 -13 -96 14 -95 14 -95 -102 0 -55 4 -102 8 -105 5 -3 37 -2 73 2 54 6 65 11 76 32 12 24 13 24 13 -15 l0 -40 -133 0 c-98 0 -128 3 -113 10 20 10 21 20 24 230 1 121 0 230 -3 242 -3 12 -13 24 -23 26 -9 3 44 5 120 6 l136 1 7 -41z m360 32 l-30 -6 -3 -238 -2 -237 68 0 c72 0 97 11 105 45 3 11 5 -1 6 -26 l1 -47 -205 0 c-113 1 -207 3 -209 7 -2 3 -6 20 -10 36 l-7 30 21 -22 c18 -20 31 -23 95 -23 l75 0 0 235 c0 235 0 236 -22 245 -16 6 2 9 62 8 51 0 73 -3 55 -7z m530 2 c-36 -9 -45 -33 -45 -126 0 -80 3 -96 31 -151 42 -83 105 -176 139 -206 l28 -25 -47 0 c-43 0 -47 2 -43 22 3 14 -12 49 -39 95 -24 40 -53 90 -64 111 l-20 37 -17 -22 c-10 -13 -18 -27 -18 -32 0 -5 -6 -17 -14 -25 -30 -35 -95 -168 -86 -177 5 -5 -17 -9 -55 -9 -58 0 -62 1 -39 13 13 7 48 50 78 95 103 159 106 167 110 258 5 102 0 128 -28 139 -14 6 7 9 64 8 47 0 76 -2 65 -5z m392 -14 c42 -26 63 -66 63 -120 0 -56 -27 -97 -106 -160 -74 -59 -98 -97 -89 -140 9 -38 40 -59 90 -59 47 0 82 21 88 53 2 12 5 3 6 -19 1 -47 -9 -54 -87 -54 -86 0 -132 44 -132 128 l0 53 95 93 c86 85 95 97 95 131 0 54 -44 95 -102 95 -53 0 -85 -20 -97 -63 -9 -31 -9 -30 -10 16 -1 41 2 49 22 57 42 17 127 11 164 -11z m-1197 -700 c158 -15 589 -94 534 -98 -7 -1 -47 6 -90 14 -253 47 -600 67 -651 37 -64 -36 18 -123 200 -212 68 -33 131 -60 140 -60 15 0 33 -17 25 -25 -7 -7 -254 96 -334 140 -97 53 -174 123 -174 158 0 52 119 68 350 46z m577 -105 c-3 -3 -12 -4 -19 -1 -8 3 -5 6 6 6 11 1 17 -2 13 -5z m-162 -304 c13 -5 14 -9 5 -9 -8 0 -24 4 -35 9 -13 5 -14 9 -5 9 8 0 24 -4 35 -9z m52 -16 c-3 -3 -12 -4 -19 -1 -8 3 -5 6 6 6 11 1 17 -2 13 -5z m50 -10 c-3 -3 -12 -4 -19 -1 -8 3 -5 6 6 6 11 1 17 -2 13 -5z m40 -10 c-3 -3 -12 -4 -19 -1 -8 3 -5 6 6 6 11 1 17 -2 13 -5z m50 -10 c-3 -3 -12 -4 -19 -1 -8 3 -5 6 6 6 11 1 17 -2 13 -5z"/>
 <path d="M1600 1790 c0 -27 3 -31 23 -28 16 2 22 10 22 28 0 18 -6 26 -22 28 -20 3 -23 -1 -23 -28z"/>
 <path d="M2092 1830 c-1 -62 1 -70 17 -70 27 0 43 25 45 69 1 42 -17 71 -44 71 -14 0 -17 -11 -18 -70z"/>
 <path d="M2281 1833 c1 -10 4 -29 8 -43 l7 -25 7 23 c19 62 19 62 -2 62 -14 0 -21 -6 -20 -17z"/>
 <path d="M2470 1830 c0 -63 2 -70 20 -70 25 0 40 29 40 77 0 42 -14 63 -42 63 -16 0 -18 -9 -18 -70z"/>
 </g>
<g id="layer106" fill="#615f60" stroke="none">
 <path d="M0 1200 l0 -1200 1600 0 1600 0 0 1200 0 1200 -1600 0 -1600 0 0 -1200z m731 720 c16 -9 19 -22 19 -85 0 -43 4 -75 10 -75 6 0 10 -7 10 -15 0 -10 -10 -15 -29 -15 -30 0 -54 21 -33 28 8 2 12 27 12 67 0 52 -4 66 -18 74 -33 18 -47 -3 -47 -71 0 -35 4 -66 9 -69 16 -12 -5 -29 -35 -29 -19 0 -29 5 -29 15 0 8 5 15 10 15 6 0 10 28 10 63 0 76 18 107 61 107 17 0 39 -5 50 -10z m159 0 c0 -3 -5 -11 -11 -17 -5 -5 -9 -30 -7 -54 l3 -43 29 55 c51 94 66 89 66 -21 0 -53 4 -80 13 -83 21 -9 -11 -25 -39 -19 -23 4 -35 22 -14 22 6 0 10 24 10 53 l-1 52 -31 -58 c-35 -64 -63 -87 -82 -67 -8 9 -8 14 2 17 15 6 17 143 2 143 -5 0 -10 6 -10 14 0 10 11 14 35 13 19 -1 35 -4 35 -7z m220 -7 c0 -7 -4 -13 -10 -13 -6 0 -10 -30 -10 -70 0 -40 4 -70 10 -70 6 0 10 -7 10 -15 0 -10 -11 -15 -35 -15 -24 0 -35 5 -35 15 0 8 5 15 10 15 6 0 10 30 10 70 0 40 -4 70 -10 70 -5 0 -10 6 -10 13 0 9 13 14 35 14 23 0 35 -5 35 -14z m179 -68 c13 -46 28 -86 35 -89 15 -6 -13 -26 -28 -20 -7 3 -20 37 -31 77 -19 72 -19 72 -27 37 -28 -111 -39 -129 -67 -111 -12 8 -12 11 1 25 9 8 23 49 33 91 14 66 19 75 38 75 19 0 25 -11 46 -85z m209 56 c-3 -27 -28 -42 -28 -17 0 9 -8 16 -20 16 -16 0 -20 -7 -20 -30 0 -25 4 -30 25 -30 16 0 25 -6 25 -15 0 -9 -9 -15 -25 -15 -20 0 -25 -5 -25 -25 0 -29 34 -36 44 -9 7 19 26 9 26 -16 0 -22 -19 -30 -70 -30 -37 0 -66 20 -42 28 15 5 17 142 2 142 -5 0 -10 6 -10 13 0 8 19 12 60 12 59 0 61 -1 58 -24z m122 13 c0 -8 -4 -14 -10 -14 -5 0 -10 -11 -10 -25 0 -37 17 -30 40 15 21 40 60 57 60 25 0 -8 -4 -15 -9 -15 -5 0 -16 -13 -24 -30 -13 -25 -13 -31 -1 -41 18 -15 18 -63 0 -78 -21 -18 -102 -26 -111 -10 -5 7 -4 14 3 17 8 2 12 28 12 72 0 44 -4 70 -12 72 -21 7 1 25 32 26 20 0 30 -4 30 -14z m224 -3 c26 -29 16 -63 -26 -90 -45 -29 -51 -61 -13 -61 16 0 25 6 25 15 0 19 16 19 24 0 7 -19 -19 -45 -45 -45 -73 0 -88 81 -21 109 35 14 47 37 32 56 -13 16 -50 8 -50 -11 0 -8 -7 -14 -15 -14 -18 0 -20 31 -3 48 19 19 73 14 92 -7z m130 -10 c-11 -40 -11 -135 -1 -142 17 -12 -3 -29 -34 -29 -19 0 -29 5 -29 15 0 8 5 15 10 15 15 0 13 137 -2 142 -22 8 1 25 32 25 29 0 31 -2 24 -26z m196 4 c21 -21 21 -128 0 -149 -8 -9 -41 -18 -72 -22 -50 -6 -58 -4 -58 10 0 9 5 16 10 16 15 0 13 137 -2 142 -6 2 -8 9 -5 15 10 17 108 7 127 -12z m102 16 c4 -1 7 -11 5 -23 -2 -18 3 -23 23 -23 21 0 25 4 22 26 -2 22 1 26 28 26 18 0 30 -6 30 -14 0 -7 -4 -13 -8 -13 -4 0 -13 -21 -20 -47 -7 -27 -17 -65 -23 -85 -14 -55 -45 -52 -59 5 -6 23 -19 65 -30 92 -25 63 -25 62 3 59 12 -1 25 -3 29 -3z m276 -18 c6 -9 12 -45 12 -79 0 -71 -7 -80 -70 -88 -44 -6 -91 9 -62 21 15 6 17 143 2 143 -5 0 -10 6 -10 14 0 21 110 11 128 -11z m-1664 -299 c52 -8 58 -16 69 -89 l6 -40 -20 37 c-25 49 -64 68 -136 68 -136 0 -241 -100 -251 -240 -8 -105 30 -180 111 -222 34 -17 54 -20 124 -16 98 5 132 24 150 84 l11 39 1 -67 1 -66 -62 -8 c-35 -4 -94 -7 -132 -6 -181 3 -291 145 -253 327 32 153 174 227 381 199z m460 -20 c3 -9 6 -30 5 -47 -1 -30 -1 -30 -8 -7 -4 14 -18 30 -31 37 -35 18 -101 16 -128 -3 -20 -14 -22 -23 -22 -118 0 -99 1 -104 23 -110 32 -8 99 4 120 22 16 14 17 13 17 -19 l0 -34 -80 3 -80 4 0 -102 0 -101 72 3 c66 3 74 5 85 28 12 24 13 24 13 -15 l0 -40 -140 0 c-120 -1 -135 1 -110 12 l30 12 0 224 c0 228 -3 247 -40 260 -8 3 49 6 126 6 121 1 143 -1 148 -15z m366 9 c-14 -3 -28 -10 -32 -17 -4 -6 -8 -113 -8 -238 l0 -228 59 0 c75 0 108 12 114 42 2 13 5 2 6 -23 l1 -47 -210 0 c-190 -1 -210 1 -210 16 0 9 -3 28 -6 42 -5 23 -5 24 7 5 19 -31 29 -35 107 -35 l72 0 0 228 c0 125 -4 232 -8 238 -4 6 -14 14 -22 17 -8 3 23 5 70 5 47 0 74 -3 60 -5z m525 0 c-36 -9 -45 -33 -45 -126 0 -80 3 -96 31 -151 43 -84 105 -176 140 -207 l30 -26 -58 0 c-32 0 -52 2 -45 4 23 9 12 45 -48 145 -33 56 -60 107 -60 112 0 13 -39 -35 -40 -47 0 -5 -8 -21 -19 -35 -40 -58 -83 -145 -78 -161 4 -15 -5 -17 -60 -18 l-64 -1 29 18 c29 18 181 250 183 279 1 27 1 134 0 169 -1 24 -7 35 -23 42 -16 6 2 9 62 8 47 0 76 -2 65 -5z m392 -13 c41 -25 63 -68 63 -123 0 -53 -36 -107 -105 -160 -64 -49 -87 -82 -88 -124 -1 -47 30 -73 87 -73 48 0 83 20 89 53 2 12 5 3 6 -19 1 -47 -9 -54 -90 -54 -86 0 -141 61 -131 147 4 30 20 51 98 129 85 83 94 95 94 129 0 51 -44 95 -95 95 -52 0 -93 -24 -104 -63 -9 -31 -9 -31 -10 16 -1 41 2 49 22 57 41 16 130 11 164 -10z m-1152 -705 c72 -8 153 -19 180 -24 252 -46 351 -69 300 -70 -11 0 -38 4 -60 9 -66 15 -242 39 -380 51 -131 11 -242 7 -289 -11 -74 -28 15 -122 197 -209 67 -32 131 -61 141 -62 11 -2 21 -10 24 -17 6 -18 -143 39 -284 109 -146 73 -227 140 -222 185 3 25 9 31 48 41 63 16 192 15 345 -2z m532 -101 c-3 -3 -12 -4 -19 -1 -8 3 -5 6 6 6 11 1 17 -2 13 -5z m40 -10 c-3 -3 -12 -4 -19 -1 -8 3 -5 6 6 6 11 1 17 -2 13 -5z m-162 -304 c39 -11 54 -18 34 -15 -39 6 -130 33 -114 34 6 0 42 -8 80 -19z m102 -26 c-3 -3 -12 -4 -19 -1 -8 3 -5 6 6 6 11 1 17 -2 13 -5z m50 -10 c-3 -3 -12 -4 -19 -1 -8 3 -5 6 6 6 11 1 17 -2 13 -5z"/>
 <path d="M1600 1790 c0 -27 3 -31 23 -28 16 2 22 10 22 28 0 18 -6 26 -22 28 -20 3 -23 -1 -23 -28z"/>
 <path d="M2092 1835 c-1 -50 2 -67 13 -72 27 -10 45 17 45 66 0 49 -13 71 -41 71 -13 0 -16 -12 -17 -65z"/>
 <path d="M2284 1819 c3 -17 6 -37 6 -43 0 -24 20 21 20 47 0 18 -5 27 -16 27 -13 0 -15 -7 -10 -31z"/>
 <path d="M2470 1830 c0 -54 3 -70 14 -70 25 0 46 30 46 66 0 46 -16 74 -40 74 -18 0 -20 -7 -20 -70z"/>
 </g>
<g id="layer107" fill="#817f80" stroke="none">
 <path d="M0 1200 l0 -1200 1600 0 1600 0 0 1200 0 1200 -1600 0 -1600 0 0 -1200z m731 720 c16 -9 19 -22 19 -85 0 -43 4 -75 10 -75 6 0 10 -7 10 -15 0 -10 -10 -15 -29 -15 -32 0 -51 18 -32 30 8 4 11 29 9 71 -3 62 -4 64 -30 67 -23 3 -28 -1 -29 -20 -3 -51 4 -113 13 -119 19 -12 -3 -29 -38 -29 -24 0 -34 5 -34 15 0 8 5 15 10 15 6 0 10 30 10 69 0 50 4 74 16 85 18 18 66 21 95 6z m159 -4 c0 -8 -5 -16 -11 -18 -6 -2 -9 -23 -7 -48 l3 -45 33 63 c19 35 39 61 45 59 8 -2 13 -34 15 -82 2 -48 8 -82 15 -87 18 -12 -9 -26 -39 -20 -23 4 -35 22 -14 22 6 0 10 24 10 53 l-1 52 -29 -57 c-33 -62 -64 -88 -84 -68 -8 9 -8 14 2 17 15 6 17 143 2 143 -5 0 -10 7 -10 15 0 10 11 15 35 15 24 0 35 -5 35 -14z m220 -1 c0 -8 -4 -15 -10 -15 -6 0 -10 -30 -10 -70 0 -40 4 -70 10 -70 6 0 10 -7 10 -15 0 -10 -11 -15 -35 -15 -24 0 -35 5 -35 15 0 8 5 15 10 15 6 0 10 30 10 70 0 40 -4 70 -10 70 -5 0 -10 7 -10 15 0 10 11 15 35 15 24 0 35 -5 35 -15z m179 -67 c13 -46 28 -86 35 -90 8 -6 7 -11 -3 -17 -25 -16 -37 -1 -56 72 l-19 72 -16 -65 c-22 -90 -29 -100 -59 -81 -12 8 -12 11 0 24 8 8 23 48 33 91 16 67 20 76 40 76 20 0 26 -10 45 -82z m211 52 c0 -20 -5 -30 -15 -30 -8 0 -15 7 -15 15 0 8 -9 15 -20 15 -16 0 -20 -7 -20 -30 0 -27 3 -30 31 -30 38 0 35 -24 -4 -28 -21 -3 -27 -9 -27 -28 0 -17 5 -24 20 -24 11 0 20 7 20 15 0 8 7 15 15 15 20 0 20 -46 -1 -54 -27 -10 -92 -7 -100 6 -4 6 -2 14 4 16 15 5 17 142 2 142 -5 0 -10 7 -10 15 0 12 13 15 60 15 l60 0 0 -30z m120 15 c0 -8 -4 -15 -10 -15 -5 0 -10 -11 -10 -25 0 -37 17 -30 40 15 21 40 60 57 60 25 0 -8 -3 -15 -7 -15 -5 0 -16 -13 -25 -29 -14 -26 -14 -32 -2 -42 18 -15 18 -63 0 -78 -21 -18 -102 -26 -111 -10 -5 7 -4 14 3 17 15 5 17 142 2 142 -5 0 -10 7 -10 15 0 10 11 15 35 15 24 0 35 -5 35 -15z m222 -2 c34 -31 18 -82 -32 -103 -19 -8 -30 -19 -28 -29 4 -22 48 -28 48 -7 0 19 16 21 23 4 15 -44 -56 -65 -93 -28 -32 32 -21 69 29 90 49 20 53 60 5 60 -15 0 -24 -6 -24 -15 0 -8 -7 -15 -15 -15 -18 0 -21 46 -2 53 26 11 71 6 89 -10z m141 10 c4 -3 2 -12 -5 -20 -16 -20 -17 -134 -1 -140 7 -3 13 -11 13 -19 0 -10 -12 -14 -40 -14 -29 0 -40 4 -40 15 0 8 5 15 10 15 6 0 10 30 10 70 0 40 -4 70 -10 70 -5 0 -10 7 -10 15 0 10 10 15 33 15 19 0 37 -3 40 -7z m189 -23 c24 -30 25 -110 1 -139 -24 -28 -133 -43 -133 -17 0 9 5 16 10 16 6 0 10 30 10 70 0 40 -4 70 -10 70 -5 0 -10 7 -10 16 0 27 108 14 132 -16z m104 5 c-6 -23 -3 -25 24 -25 30 0 40 13 20 25 -18 11 0 25 31 25 28 0 41 -22 20 -35 -5 -3 -13 -20 -16 -38 -33 -157 -59 -165 -103 -32 -18 52 -32 97 -32 100 0 3 14 5 31 5 28 0 31 -2 25 -25z m247 16 c46 -18 61 -139 22 -171 -19 -16 -127 -18 -132 -2 -3 6 2 12 11 12 23 0 23 135 0 144 -8 3 -12 10 -9 16 8 13 76 13 108 1z m144 -28 c-4 -3 -10 -3 -14 0 -3 4 0 7 7 7 7 0 10 -3 7 -7z m-1757 -292 c20 -5 28 -17 37 -56 16 -63 11 -81 -10 -33 -20 48 -60 68 -134 68 -65 0 -143 -31 -180 -71 -63 -71 -86 -176 -59 -270 28 -94 95 -139 209 -139 89 0 147 30 164 85 l11 40 1 -57 c1 -32 2 -61 4 -65 4 -14 -146 -33 -210 -27 -172 15 -276 150 -245 317 27 142 134 217 307 216 44 -1 91 -4 105 -8z m434 -17 c3 -9 6 -30 5 -47 -1 -30 -1 -30 -8 -7 -9 31 -44 50 -97 50 -70 0 -79 -13 -82 -135 l-4 -106 68 3 c62 3 70 6 81 28 12 24 13 23 13 -20 l0 -45 -80 3 -80 4 0 -101 0 -101 63 0 c67 0 78 4 95 35 10 17 11 14 12 -22 l0 -43 -142 0 c-132 1 -141 2 -110 15 l32 14 0 224 c0 228 -3 247 -40 260 -8 3 49 6 126 6 121 1 143 -1 148 -15z m371 9 c-44 -11 -45 -15 -45 -254 l0 -229 59 0 c75 0 108 12 114 42 2 13 5 2 6 -24 l1 -47 -206 -3 c-113 -2 -207 -1 -209 2 -2 3 -6 22 -10 43 l-8 39 26 -26 c23 -23 34 -26 97 -26 l70 0 0 228 c0 125 -4 232 -8 238 -4 6 -14 14 -22 17 -8 3 23 5 70 5 47 0 76 -3 65 -5z m520 0 c-36 -9 -45 -33 -45 -125 0 -104 10 -129 123 -301 24 -36 51 -64 70 -73 31 -13 30 -13 -38 -14 -54 0 -66 3 -57 12 19 19 16 29 -52 147 l-64 111 -32 -57 c-18 -32 -41 -73 -52 -91 -10 -18 -26 -44 -34 -58 -9 -13 -14 -33 -11 -44 5 -19 0 -20 -61 -20 -66 1 -66 1 -39 16 22 12 117 140 117 158 0 2 16 28 35 57 35 53 35 55 35 162 0 102 -1 108 -22 117 -16 6 2 9 62 8 47 0 76 -2 65 -5z m392 -13 c40 -24 63 -67 63 -120 0 -59 -18 -86 -109 -169 -75 -67 -81 -76 -81 -111 0 -44 29 -80 66 -80 56 0 86 13 100 44 l13 31 1 -42 c0 -37 -3 -43 -25 -49 -14 -4 -51 -4 -81 -2 -87 7 -133 66 -117 151 4 23 29 54 88 112 45 44 88 90 94 102 32 62 -15 133 -87 133 -49 0 -99 -37 -105 -78 -2 -15 -5 -4 -6 25 -1 64 10 72 94 73 42 0 69 -6 92 -20z m-1032 -719 c198 -31 461 -88 452 -97 -2 -3 -37 3 -78 11 -211 45 -568 82 -669 70 -60 -7 -100 -27 -100 -50 0 -47 137 -143 301 -210 142 -58 101 -62 -51 -5 -95 36 -274 136 -320 179 -50 47 -66 90 -38 107 47 29 301 27 503 -5z m295 -401 c46 -14 54 -19 25 -14 -51 7 -115 23 -115 29 0 9 24 5 90 -15z m135 -30 c27 -7 27 -8 5 -8 -14 0 -36 4 -50 8 -20 6 -21 8 -5 8 11 0 34 -4 50 -8z m68 -17 c-7 -2 -19 -2 -25 0 -7 3 -2 5 12 5 14 0 19 -2 13 -5z"/>
 <path d="M1600 1790 c0 -31 17 -39 38 -18 14 14 -2 48 -23 48 -10 0 -15 -10 -15 -30z"/>
 <path d="M2097 1893 c-8 -17 -7 -122 3 -128 5 -3 19 -1 30 5 16 8 20 21 20 58 0 27 -5 53 -12 60 -13 13 -35 16 -41 5z"/>
 <path d="M2284 1828 c3 -13 6 -30 6 -38 0 -13 1 -13 10 0 16 24 12 60 -6 60 -12 0 -15 -6 -10 -22z"/>
 <path d="M2470 1830 c0 -54 3 -70 14 -70 25 0 46 30 46 66 0 46 -16 74 -40 74 -18 0 -20 -7 -20 -70z"/>
 </g>
<g id="layer108" fill="#919090" stroke="none">
 <path d="M0 1200 l0 -1200 1600 0 1600 0 0 1200 0 1200 -1600 0 -1600 0 0 -1200z m731 720 c16 -9 19 -22 19 -85 0 -62 3 -75 16 -75 27 0 9 -25 -20 -28 -33 -4 -58 14 -38 27 9 5 12 28 10 72 -3 62 -4 64 -30 67 l-28 3 0 -70 c0 -44 4 -71 12 -73 23 -8 -4 -28 -38 -28 -24 0 -34 5 -34 15 0 8 5 15 10 15 6 0 10 30 10 69 0 50 4 74 16 85 18 18 66 21 95 6z m159 -5 c0 -8 -4 -15 -10 -15 -5 0 -10 -21 -10 -47 l1 -48 35 63 c50 88 64 83 64 -23 0 -50 4 -85 10 -85 21 0 9 -20 -16 -26 -32 -8 -52 9 -35 30 7 8 11 32 9 53 l-3 38 -33 -62 c-22 -44 -38 -63 -52 -63 -22 0 -39 22 -22 28 15 5 17 142 2 142 -5 0 -10 7 -10 15 0 10 11 15 35 15 24 0 35 -5 35 -15z m212 -66 c-3 -59 -1 -83 8 -89 21 -13 1 -30 -36 -30 -24 0 -34 5 -34 15 0 8 5 15 10 15 6 0 10 30 10 70 0 40 -4 70 -10 70 -5 0 -10 7 -10 15 0 10 10 15 33 15 l34 0 -5 -81z m175 49 c6 -18 17 -57 24 -85 7 -29 16 -53 21 -53 4 0 8 -7 8 -15 0 -16 -18 -20 -36 -7 -6 4 -19 38 -29 76 l-19 70 -16 -65 c-22 -90 -29 -99 -60 -79 -10 7 -11 13 -4 18 9 6 34 78 50 145 9 40 46 37 61 -5z m223 2 c0 -20 -5 -30 -15 -30 -8 0 -15 7 -15 15 0 8 -9 15 -20 15 -16 0 -20 -7 -20 -30 0 -27 3 -30 30 -30 20 0 30 -5 30 -15 0 -10 -10 -15 -31 -15 -26 0 -30 -3 -27 -22 3 -26 38 -38 38 -14 0 9 7 16 15 16 10 0 15 -10 15 -30 l0 -30 -65 0 c-51 0 -65 3 -65 15 0 8 5 15 10 15 13 0 13 137 0 145 -23 14 4 25 61 25 59 0 59 0 59 -30z m120 15 c0 -8 -4 -15 -10 -15 -5 0 -10 -11 -10 -25 0 -37 17 -30 40 15 16 30 26 40 45 40 27 0 33 -14 12 -27 -7 -4 -20 -20 -29 -35 -15 -23 -15 -28 -3 -38 8 -7 15 -28 15 -46 0 -39 -24 -54 -85 -54 -33 0 -60 20 -37 28 15 5 17 142 2 142 -5 0 -10 7 -10 15 0 10 11 15 35 15 24 0 35 -5 35 -15z m222 -2 c10 -9 18 -29 18 -44 0 -23 -9 -34 -41 -54 -43 -28 -47 -48 -11 -53 15 -2 22 2 22 12 0 9 7 16 15 16 18 0 19 -14 5 -41 -16 -30 -75 -26 -96 6 -21 32 -11 56 36 87 42 29 45 52 8 56 -20 2 -28 -1 -28 -12 0 -9 -7 -16 -15 -16 -18 0 -21 46 -2 53 26 11 71 6 89 -10z m144 5 c4 -6 2 -14 -4 -16 -15 -5 -17 -142 -2 -142 6 0 10 -7 10 -15 0 -11 -11 -15 -40 -15 -29 0 -40 4 -40 15 0 8 5 15 10 15 6 0 10 30 10 70 0 40 -4 70 -10 70 -5 0 -10 7 -10 15 0 18 65 21 76 3z m183 -14 c27 -35 29 -112 3 -144 -24 -30 -132 -43 -132 -16 0 9 5 16 10 16 6 0 10 30 10 70 0 40 -4 70 -10 70 -5 0 -10 7 -10 15 0 11 13 15 54 15 47 0 57 -4 75 -26z m107 1 c-6 -23 -3 -25 24 -25 29 0 41 15 18 22 -23 8 4 28 38 28 32 0 45 -12 25 -24 -5 -3 -21 -44 -36 -91 -20 -65 -31 -85 -45 -85 -19 0 -27 16 -55 112 -9 32 -21 61 -26 64 -17 10 2 24 33 24 27 0 30 -2 24 -25z m276 -5 c12 -14 18 -39 18 -70 0 -69 -22 -92 -92 -98 -39 -3 -58 0 -63 9 -5 7 -4 14 3 17 8 2 12 28 12 72 0 44 -4 70 -12 72 -7 3 -8 10 -3 17 13 23 115 9 137 -19z m118 -4 c0 -3 -4 -8 -10 -11 -5 -3 -10 -1 -10 4 0 6 5 11 10 11 6 0 10 -2 10 -4z m-25 -26 c3 -5 4 -10 1 -10 -3 0 -8 5 -11 10 -3 6 -4 10 -1 10 3 0 8 -4 11 -10z m45 6 c0 -3 -5 -8 -12 -12 -7 -4 -8 -3 -4 4 7 12 16 16 16 8z m-1756 -286 c7 -8 16 -37 20 -64 7 -54 3 -55 -22 -4 -43 86 -244 71 -315 -24 -60 -81 -79 -162 -57 -245 30 -110 104 -159 226 -150 57 4 133 27 134 40 0 1 7 20 15 42 l14 40 1 -45 c0 -25 3 -54 6 -66 5 -19 -1 -22 -85 -34 -142 -20 -232 1 -303 71 -107 107 -100 299 14 392 62 50 129 68 240 64 70 -2 102 -7 112 -17z m410 -6 c3 -9 6 -30 6 -47 l-1 -32 -14 32 c-11 27 -20 33 -61 39 -26 4 -59 3 -73 -2 -26 -9 -26 -11 -29 -122 l-3 -112 60 0 c56 0 62 2 75 28 l15 27 1 -45 0 -45 -75 3 -75 4 0 -101 0 -101 58 0 c62 0 73 5 90 35 11 19 11 18 12 -7 0 -14 3 -33 6 -42 5 -14 -11 -16 -142 -16 -137 1 -146 2 -116 15 l32 14 0 224 c0 228 -3 247 -40 260 -8 3 49 6 126 6 121 1 143 -1 148 -15z m371 9 c-44 -11 -45 -15 -45 -254 l0 -229 61 0 c68 0 96 11 109 43 7 17 9 12 9 -25 l1 -47 -206 -3 c-113 -2 -207 -1 -209 2 -2 3 -6 22 -10 43 l-8 39 26 -26 c23 -23 34 -26 97 -26 l70 0 0 228 c0 125 -4 232 -8 238 -4 7 -16 14 -27 17 -11 2 21 5 70 5 50 0 81 -3 70 -5z m525 0 c-40 -7 -50 -30 -50 -112 0 -95 9 -126 62 -215 73 -123 99 -158 132 -172 30 -13 29 -13 -37 -14 -63 0 -66 1 -56 19 10 15 2 37 -53 135 l-66 117 -37 -68 c-21 -37 -51 -89 -67 -116 -18 -28 -28 -55 -25 -67 5 -18 0 -20 -61 -20 -66 0 -71 4 -30 24 21 11 100 128 153 228 22 42 25 60 25 148 0 95 -1 101 -22 110 -16 6 4 9 67 8 50 0 79 -3 65 -5z m380 -8 c48 -25 70 -62 70 -117 0 -67 -15 -92 -110 -177 -78 -71 -81 -75 -78 -114 4 -59 41 -84 105 -71 43 8 49 13 60 44 l12 35 0 -46 c1 -55 -5 -59 -89 -59 -52 0 -64 4 -94 31 -75 65 -59 138 51 236 88 79 106 110 97 158 -8 44 -31 64 -85 71 -53 7 -93 -19 -108 -69 -8 -29 -9 -27 -10 25 -1 65 -1 65 92 67 34 1 70 -5 87 -14z m-1165 -705 c211 -23 601 -102 624 -126 3 -3 -3 -4 -14 0 -30 8 -209 43 -290 55 -251 38 -506 46 -550 17 -14 -9 -25 -23 -25 -31 0 -16 67 -95 81 -95 4 0 29 -14 55 -32 25 -17 92 -50 148 -74 55 -24 102 -48 105 -55 2 -8 -3 -10 -15 -6 -139 43 -379 165 -443 225 -51 48 -67 91 -39 108 39 24 211 31 363 14z m460 -422 c58 -15 24 -22 -38 -8 -67 16 -97 33 -42 25 22 -3 58 -11 80 -17z m140 -33 c63 -17 18 -18 -50 0 -31 8 -40 13 -25 13 14 1 48 -5 75 -13z m102 -21 c-3 -3 -12 -4 -19 -1 -8 3 -5 6 6 6 11 1 17 -2 13 -5z"/>
 <path d="M1607 1813 c-12 -12 -7 -53 6 -53 23 0 37 21 26 42 -10 19 -21 23 -32 11z"/>
 <path d="M2100 1830 c0 -38 3 -70 6 -70 3 0 14 5 25 10 15 8 19 21 19 58 0 48 -12 72 -37 72 -9 0 -13 -19 -13 -70z"/>
 <path d="M2284 1828 c3 -13 6 -30 7 -38 0 -8 5 -4 9 10 13 39 11 50 -6 50 -12 0 -15 -6 -10 -22z"/>
 <path d="M2470 1836 c0 -36 4 -67 9 -70 21 -13 40 8 46 49 8 50 -7 85 -35 85 -18 0 -20 -7 -20 -64z"/>
 </g>
<g id="layer109" fill="#fddd04" stroke="none">
 <path d="M0 1200 l0 -1200 1600 0 1600 0 0 1200 0 1200 -1600 0 -1600 0 0 -1200z m738 718 c7 -7 12 -40 12 -80 0 -52 4 -69 16 -76 24 -13 8 -32 -26 -32 -33 0 -47 15 -30 35 6 7 10 38 8 72 -3 54 -5 58 -28 58 -24 0 -25 -3 -28 -64 -2 -42 1 -67 9 -71 20 -13 -1 -30 -37 -30 -24 0 -34 5 -34 15 0 8 5 15 10 15 6 0 10 30 10 69 0 50 4 74 16 85 18 19 85 21 102 4z m152 -3 c0 -8 -4 -15 -10 -15 -5 0 -10 -21 -10 -47 l0 -48 36 63 c50 88 64 83 64 -23 0 -50 4 -85 10 -85 6 0 10 -7 10 -15 0 -11 -11 -15 -40 -15 -44 0 -48 5 -24 31 10 11 14 31 12 56 l-3 38 -33 -62 c-22 -44 -38 -63 -52 -63 -22 0 -39 22 -22 28 15 5 17 142 2 142 -5 0 -10 7 -10 15 0 10 11 15 35 15 24 0 35 -5 35 -15z m226 3 c4 -6 2 -14 -4 -16 -8 -2 -12 -28 -12 -72 0 -44 4 -70 12 -72 23 -8 -4 -28 -38 -28 -24 0 -34 5 -34 15 0 8 5 15 10 15 6 0 10 30 10 70 0 40 -4 70 -10 70 -5 0 -10 7 -10 15 0 18 65 21 76 3z m175 -65 c10 -39 23 -80 30 -92 16 -24 8 -35 -18 -27 -14 4 -25 27 -38 79 l-19 72 -14 -65 c-7 -36 -15 -71 -17 -77 -6 -19 -55 -16 -55 2 0 8 4 15 8 15 4 0 18 38 32 85 22 81 25 86 49 83 22 -3 27 -11 42 -75z m209 47 c0 -20 -5 -30 -15 -30 -8 0 -15 7 -15 15 0 8 -4 15 -8 15 -14 0 -32 -23 -32 -42 0 -13 8 -18 30 -18 20 0 30 -5 30 -15 0 -10 -10 -15 -30 -15 -23 0 -30 -5 -30 -19 0 -27 21 -37 35 -18 19 26 35 20 35 -13 l0 -30 -65 0 c-51 0 -65 3 -65 15 0 8 5 15 10 15 15 0 13 137 -2 142 -6 2 -8 10 -4 16 4 7 31 12 67 12 59 0 59 0 59 -30z m120 21 c0 -5 -4 -21 -10 -35 -16 -43 8 -40 30 4 16 30 26 40 45 40 27 0 34 -17 11 -26 -8 -3 -19 -18 -25 -33 -9 -21 -9 -33 3 -55 26 -51 -3 -86 -70 -86 -40 0 -72 19 -46 28 15 5 17 142 2 142 -5 0 -10 7 -10 15 0 10 11 15 35 15 19 0 35 -4 35 -9z m222 -8 c10 -9 18 -29 18 -44 0 -23 -9 -34 -41 -54 -40 -26 -47 -47 -16 -53 10 -2 17 3 17 12 0 10 9 16 21 16 16 0 20 -5 17 -27 -3 -25 -8 -28 -45 -31 -36 -3 -44 1 -59 23 -22 33 -8 67 36 90 18 9 30 23 30 35 0 26 -31 26 -48 0 -7 -11 -17 -20 -22 -20 -11 0 -14 53 -3 63 13 13 77 7 95 -10z m144 5 c4 -6 2 -14 -4 -16 -15 -5 -17 -142 -2 -142 6 0 10 -7 10 -15 0 -11 -11 -15 -40 -15 -29 0 -40 4 -40 15 0 8 5 15 10 15 6 0 10 30 10 70 0 40 -4 70 -10 70 -5 0 -10 7 -10 15 0 18 65 21 76 3z m183 -14 c15 -19 21 -41 21 -74 0 -33 -6 -55 -21 -74 -18 -22 -28 -26 -75 -26 -41 0 -54 4 -54 15 0 8 5 15 10 15 6 0 10 30 10 70 0 40 -4 70 -10 70 -5 0 -10 7 -10 15 0 11 13 15 54 15 47 0 57 -4 75 -26z m107 1 c-6 -22 -3 -25 19 -25 20 0 24 5 22 23 -2 19 3 22 36 25 34 3 49 -9 28 -22 -5 -3 -20 -44 -35 -91 -21 -66 -31 -85 -45 -85 -20 0 -30 20 -56 109 -8 30 -20 58 -26 62 -19 12 0 29 33 29 27 0 30 -2 24 -25z m273 -1 c27 -35 29 -112 3 -144 -22 -28 -124 -42 -137 -19 -5 7 -4 14 3 17 8 2 12 28 12 72 0 44 -4 70 -12 72 -29 10 8 28 57 28 46 0 56 -4 74 -26z m139 -9 c0 -14 -5 -28 -11 -32 -5 -3 -7 -1 -3 5 3 6 2 13 -3 16 -5 3 -12 -1 -15 -10 -6 -17 -26 -10 -26 9 0 7 4 6 10 -3 7 -11 10 -11 10 -2 0 14 21 41 31 42 4 0 7 -11 7 -25z m-1760 -302 c13 -11 23 -36 28 -65 7 -56 0 -62 -20 -14 -17 41 -41 55 -105 63 -112 13 -219 -53 -260 -162 -24 -63 -26 -96 -10 -163 14 -57 49 -106 92 -129 45 -24 189 -24 235 0 17 10 32 19 32 20 0 1 7 20 15 42 l14 40 1 -45 c0 -25 3 -54 6 -66 5 -19 -1 -21 -73 -32 -103 -16 -149 -15 -212 4 -73 21 -144 92 -165 165 -43 142 11 270 138 330 55 26 71 29 162 29 82 0 106 -3 122 -17z m1694 -9 c46 -23 68 -61 68 -116 0 -67 -15 -92 -109 -177 -75 -67 -81 -76 -81 -111 0 -30 6 -43 28 -60 47 -38 134 -12 145 44 3 11 4 -1 3 -29 l-1 -50 -82 0 c-72 0 -84 3 -107 24 -33 31 -43 95 -23 142 8 20 49 67 91 105 84 76 102 112 84 166 -13 38 -64 61 -113 52 -39 -7 -62 -29 -75 -70 -7 -24 -8 -20 -9 28 l-1 57 43 9 c48 11 99 6 139 -14z m-1278 0 c3 -9 6 -30 6 -47 l-1 -32 -14 32 c-11 27 -20 32 -57 38 -24 3 -56 2 -73 -3 l-30 -8 -3 -112 -3 -112 60 0 c56 0 62 2 75 28 l15 27 1 -45 0 -45 -75 3 -75 4 0 -101 0 -101 58 0 c64 0 73 4 89 40 l12 25 0 -32 c1 -17 4 -38 7 -47 5 -14 -11 -16 -142 -16 -137 1 -146 2 -116 15 l32 14 0 198 c0 233 -5 271 -34 283 -13 6 32 9 120 9 121 1 143 -1 148 -15z m368 9 c-13 -3 -27 -16 -33 -29 -5 -14 -9 -122 -9 -240 l0 -214 53 1 c72 1 100 11 114 39 12 23 13 22 13 -22 l0 -47 -206 -3 c-226 -3 -224 -4 -224 57 l0 27 19 -23 c16 -20 30 -24 95 -27 l76 -4 0 215 c0 221 -6 262 -37 270 -10 3 23 5 72 4 50 0 80 -2 67 -4z m528 0 c-40 -7 -50 -30 -50 -112 0 -101 8 -125 82 -248 48 -79 73 -111 103 -129 l40 -24 -68 0 c-63 0 -66 1 -56 18 10 16 1 37 -51 131 -37 66 -67 108 -72 103 -5 -5 -36 -56 -69 -113 -49 -84 -58 -107 -50 -121 10 -17 5 -18 -60 -18 l-72 0 42 38 c22 20 70 86 106 146 l65 110 0 103 c0 98 -1 104 -22 113 -16 6 4 9 67 8 50 0 79 -3 65 -5z m-740 -718 c152 -17 337 -52 485 -91 162 -42 134 -44 -55 -4 -176 38 -341 55 -521 55 -221 0 -235 -8 -172 -92 13 -18 34 -38 46 -45 60 -34 247 -126 275 -136 29 -10 45 -32 24 -32 -11 0 -107 38 -202 80 -243 106 -362 224 -267 265 43 19 216 19 387 0z m617 -132 c-4 -3 -10 -3 -14 0 -3 4 0 7 7 7 7 0 10 -3 7 -7z m-211 -282 c43 -11 108 -27 144 -35 l65 -16 -62 6 c-61 5 -239 46 -251 58 -10 11 23 6 104 -13z m247 -58 c-7 -2 -19 -2 -25 0 -7 3 -2 5 12 5 14 0 19 -2 13 -5z"/>
 <path d="M1609 1818 c-7 -29 -5 -58 5 -58 22 0 36 22 25 42 -8 15 -27 25 -30 16z"/>
 <path d="M2100 1830 c0 -73 6 -82 34 -51 26 29 18 101 -11 112 -22 8 -23 7 -23 -61z"/>
 <path d="M2289 1813 c4 -35 5 -36 12 -13 11 39 10 50 -4 50 -9 0 -12 -11 -8 -37z"/>
 <path d="M2482 1888 c-12 -12 -17 -110 -6 -121 12 -12 42 13 48 40 7 32 -5 85 -20 90 -5 2 -15 -2 -22 -9z"/>
 </g>
<g id="layer110" fill="#a2a0a0" stroke="none">
 <path d="M0 1200 l0 -1200 1600 0 1600 0 0 1200 0 1200 -1600 0 -1600 0 0 -1200z m738 718 c7 -7 12 -40 12 -80 0 -52 4 -69 16 -76 24 -13 8 -32 -26 -32 -33 0 -47 15 -30 35 6 7 10 38 8 72 -3 54 -5 58 -28 58 -24 0 -25 -3 -28 -64 -2 -42 1 -67 9 -71 20 -13 -1 -30 -37 -30 -24 0 -34 5 -34 15 0 8 5 15 10 15 6 0 10 30 10 69 0 50 4 74 16 85 18 19 85 21 102 4z m152 -3 c0 -8 -4 -15 -10 -15 -5 0 -10 -21 -10 -47 l0 -48 36 63 c50 88 64 83 64 -23 0 -50 4 -85 10 -85 6 0 10 -7 10 -15 0 -11 -11 -15 -40 -15 -44 0 -48 5 -24 31 10 11 14 31 12 56 l-3 38 -33 -62 c-22 -44 -38 -63 -52 -63 -22 0 -39 22 -22 28 15 5 17 142 2 142 -5 0 -10 7 -10 15 0 10 11 15 35 15 24 0 35 -5 35 -15z m226 3 c4 -6 2 -14 -4 -16 -8 -2 -12 -28 -12 -72 0 -44 4 -70 12 -72 23 -8 -4 -28 -38 -28 -24 0 -34 5 -34 15 0 8 5 15 10 15 6 0 10 30 10 70 0 40 -4 70 -10 70 -5 0 -10 7 -10 15 0 18 65 21 76 3z m175 -65 c10 -39 23 -80 30 -92 16 -24 8 -35 -18 -27 -14 4 -25 27 -38 79 l-19 72 -14 -65 c-7 -36 -15 -71 -17 -77 -6 -19 -55 -16 -55 2 0 8 4 15 8 15 4 0 18 38 32 85 22 81 25 86 49 83 22 -3 27 -11 42 -75z m209 47 c0 -20 -5 -30 -15 -30 -8 0 -15 7 -15 15 0 8 -4 15 -8 15 -14 0 -32 -23 -32 -42 0 -13 8 -18 30 -18 20 0 30 -5 30 -15 0 -10 -10 -15 -30 -15 -23 0 -30 -5 -30 -19 0 -27 21 -37 35 -18 19 26 35 20 35 -13 l0 -30 -65 0 c-51 0 -65 3 -65 15 0 8 5 15 10 15 15 0 13 137 -2 142 -6 2 -8 10 -4 16 4 7 31 12 67 12 59 0 59 0 59 -30z m120 21 c0 -5 -4 -21 -10 -35 -16 -43 8 -40 30 4 16 30 26 40 45 40 27 0 34 -17 11 -26 -8 -3 -19 -18 -25 -33 -9 -21 -9 -33 3 -55 26 -51 -3 -86 -70 -86 -40 0 -72 19 -46 28 15 5 17 142 2 142 -5 0 -10 7 -10 15 0 10 11 15 35 15 19 0 35 -4 35 -9z m222 -8 c10 -9 18 -29 18 -44 0 -23 -9 -34 -41 -54 -40 -26 -47 -47 -16 -53 10 -2 17 3 17 12 0 10 9 16 21 16 16 0 20 -5 17 -27 -3 -25 -8 -28 -45 -31 -36 -3 -44 1 -59 23 -22 33 -8 67 36 90 18 9 30 23 30 35 0 26 -31 26 -48 0 -7 -11 -17 -20 -22 -20 -11 0 -14 53 -3 63 13 13 77 7 95 -10z m144 5 c4 -6 2 -14 -4 -16 -15 -5 -17 -142 -2 -142 6 0 10 -7 10 -15 0 -11 -11 -15 -40 -15 -29 0 -40 4 -40 15 0 8 5 15 10 15 6 0 10 30 10 70 0 40 -4 70 -10 70 -5 0 -10 7 -10 15 0 18 65 21 76 3z m183 -14 c15 -19 21 -41 21 -74 0 -33 -6 -55 -21 -74 -18 -22 -28 -26 -75 -26 -41 0 -54 4 -54 15 0 8 5 15 10 15 6 0 10 30 10 70 0 40 -4 70 -10 70 -5 0 -10 7 -10 15 0 11 13 15 54 15 47 0 57 -4 75 -26z m107 1 c-6 -22 -3 -25 19 -25 20 0 24 5 22 23 -2 19 3 22 36 25 34 3 49 -9 28 -22 -5 -3 -20 -44 -35 -91 -21 -66 -31 -85 -45 -85 -20 0 -30 20 -56 109 -8 30 -20 58 -26 62 -19 12 0 29 33 29 27 0 30 -2 24 -25z m273 -1 c27 -35 29 -112 3 -144 -22 -28 -124 -42 -137 -19 -5 7 -4 14 3 17 8 2 12 28 12 72 0 44 -4 70 -12 72 -29 10 8 28 57 28 46 0 56 -4 74 -26z m139 -9 c0 -14 -5 -28 -11 -32 -5 -3 -7 -1 -3 5 3 6 2 13 -3 16 -5 3 -12 -1 -15 -10 -6 -17 -26 -10 -26 9 0 7 4 6 10 -3 7 -11 10 -11 10 -2 0 14 21 41 31 42 4 0 7 -11 7 -25z m-1760 -302 c13 -11 23 -36 28 -65 7 -56 0 -62 -20 -14 -17 41 -41 55 -105 63 -112 13 -219 -53 -260 -162 -24 -63 -26 -96 -10 -163 14 -57 49 -106 92 -129 45 -24 189 -24 235 0 17 10 32 19 32 20 0 1 7 20 15 42 l14 40 1 -45 c0 -25 3 -54 6 -66 5 -19 -1 -21 -73 -32 -103 -16 -149 -15 -212 4 -73 21 -144 92 -165 165 -43 142 11 270 138 330 55 26 71 29 162 29 82 0 106 -3 122 -17z m1694 -9 c46 -23 68 -61 68 -116 0 -67 -15 -92 -109 -177 -75 -67 -81 -76 -81 -111 0 -30 6 -43 28 -60 47 -38 134 -12 145 44 3 11 4 -1 3 -29 l-1 -50 -82 0 c-72 0 -84 3 -107 24 -33 31 -43 95 -23 142 8 20 49 67 91 105 84 76 102 112 84 166 -13 38 -64 61 -113 52 -39 -7 -62 -29 -75 -70 -7 -24 -8 -20 -9 28 l-1 57 43 9 c48 11 99 6 139 -14z m-1278 0 c3 -9 6 -30 6 -47 l-1 -32 -14 32 c-11 27 -20 32 -57 38 -24 3 -56 2 -73 -3 l-30 -8 -3 -112 -3 -112 60 0 c56 0 62 2 75 28 l15 27 1 -45 0 -45 -75 3 -75 4 0 -101 0 -101 58 0 c64 0 73 4 89 40 l12 25 0 -32 c1 -17 4 -38 7 -47 5 -14 -11 -16 -142 -16 -137 1 -146 2 -116 15 l32 14 0 198 c0 233 -5 271 -34 283 -13 6 32 9 120 9 121 1 143 -1 148 -15z m368 9 c-13 -3 -27 -16 -33 -29 -5 -14 -9 -122 -9 -240 l0 -214 53 1 c72 1 100 11 114 39 12 23 13 22 13 -22 l0 -47 -206 -3 c-226 -3 -224 -4 -224 57 l0 27 19 -23 c16 -20 30 -24 95 -27 l76 -4 0 215 c0 221 -6 262 -37 270 -10 3 23 5 72 4 50 0 80 -2 67 -4z m528 0 c-40 -7 -50 -30 -50 -112 0 -101 8 -125 82 -248 48 -79 73 -111 103 -129 l40 -24 -68 0 c-63 0 -66 1 -56 18 10 16 1 37 -51 131 -37 66 -67 108 -72 103 -5 -5 -36 -56 -69 -113 -49 -84 -58 -107 -50 -121 10 -17 5 -18 -60 -18 l-72 0 42 38 c22 20 70 86 106 146 l65 110 0 103 c0 98 -1 104 -22 113 -16 6 4 9 67 8 50 0 79 -3 65 -5z m-740 -718 c152 -17 337 -52 485 -91 162 -42 134 -44 -55 -4 -176 38 -341 55 -521 55 -221 0 -235 -8 -172 -92 13 -18 34 -38 46 -45 60 -34 247 -126 275 -136 29 -10 45 -32 24 -32 -11 0 -107 38 -202 80 -243 106 -362 224 -267 265 43 19 216 19 387 0z m617 -132 c-4 -3 -10 -3 -14 0 -3 4 0 7 7 7 7 0 10 -3 7 -7z m-437 -68 c0 -60 17 -96 84 -179 77 -95 82 -137 33 -263 -23 -62 -24 -62 -51 37 -10 34 -38 86 -76 138 -61 85 -77 130 -66 179 9 38 57 133 68 133 4 0 8 -20 8 -45z m226 -214 c43 -11 108 -27 144 -35 l65 -16 -62 6 c-61 5 -239 46 -251 58 -10 11 23 6 104 -13z m-301 -66 c2 -11 22 -45 45 -74 29 -40 40 -64 40 -90 0 -35 -19 -101 -30 -101 -3 0 -11 18 -18 40 -7 22 -28 62 -47 89 -48 67 -53 99 -24 158 21 42 24 45 27 23 1 -14 5 -34 7 -45z m548 8 c-7 -2 -19 -2 -25 0 -7 3 -2 5 12 5 14 0 19 -2 13 -5z"/>
 <path d="M1609 1818 c-7 -29 -5 -58 5 -58 22 0 36 22 25 42 -8 15 -27 25 -30 16z"/>
 <path d="M2100 1830 c0 -73 6 -82 34 -51 26 29 18 101 -11 112 -22 8 -23 7 -23 -61z"/>
 <path d="M2289 1813 c4 -35 5 -36 12 -13 11 39 10 50 -4 50 -9 0 -12 -11 -8 -37z"/>
 <path d="M2482 1888 c-12 -12 -17 -110 -6 -121 12 -12 42 13 48 40 7 32 -5 85 -20 90 -5 2 -15 -2 -22 -9z"/>
 </g>
<g id="layer111" fill="#ffffff" stroke="none">
 <path d="M0 1200 l0 -1200 1600 0 1600 0 0 1200 0 1200 -1600 0 -1600 0 0 -1200z m744 708 c10 -15 16 -45 16 -84 0 -39 4 -64 12 -66 25 -9 -5 -28 -43 -28 -28 0 -39 4 -39 15 0 8 5 15 10 15 6 0 10 30 10 71 0 67 -1 70 -22 67 -21 -3 -23 -9 -26 -70 -2 -43 1 -68 8 -68 5 0 10 -7 10 -15 0 -11 -11 -15 -41 -15 -38 0 -41 2 -34 23 4 12 10 51 12 87 3 36 9 71 15 78 6 6 30 12 54 12 33 0 46 -5 58 -22z m146 7 c0 -8 -4 -15 -10 -15 -5 0 -10 -21 -10 -47 l0 -48 34 60 c18 33 40 61 49 63 15 3 17 -8 17 -82 0 -51 4 -86 10 -86 6 0 10 -7 10 -15 0 -11 -11 -15 -40 -15 -28 0 -40 4 -40 14 0 8 5 16 11 18 6 2 9 19 7 38 l-3 34 -28 -52 c-24 -44 -33 -52 -58 -52 -32 0 -37 13 -14 36 10 10 15 35 15 75 0 46 -3 59 -15 59 -8 0 -15 7 -15 15 0 11 11 15 40 15 29 0 40 -4 40 -15z m230 0 c0 -8 -4 -15 -10 -15 -15 0 -13 -137 2 -142 23 -8 -4 -28 -38 -28 -24 0 -34 5 -34 15 0 8 5 15 10 15 6 0 10 30 10 70 0 40 -4 70 -10 70 -5 0 -10 7 -10 15 0 11 11 15 40 15 29 0 40 -4 40 -15z m173 -65 c10 -41 23 -79 28 -84 17 -18 9 -36 -15 -36 -25 0 -29 7 -41 70 -14 76 -18 76 -35 5 -15 -64 -19 -70 -43 -73 -19 -2 -27 1 -27 12 0 9 3 16 8 16 4 0 18 38 31 86 22 80 25 85 49 82 23 -3 28 -11 45 -78z m207 50 c0 -20 -5 -30 -15 -30 -8 0 -15 5 -15 10 0 13 -27 13 -35 0 -9 -15 14 -40 36 -40 11 0 19 -7 19 -15 0 -10 -10 -15 -30 -15 -20 0 -30 -5 -30 -15 0 -19 32 -33 38 -17 8 25 32 12 32 -18 l0 -30 -65 0 c-51 0 -65 3 -65 15 0 8 5 15 10 15 6 0 10 30 10 70 0 40 -4 70 -10 70 -5 0 -10 7 -10 15 0 12 14 15 65 15 l65 0 0 -30z m130 16 c0 -8 -5 -16 -11 -18 -6 -2 -9 -15 -7 -28 3 -23 5 -22 26 18 17 32 28 42 47 42 16 0 25 -6 25 -15 0 -8 -6 -15 -13 -15 -8 0 -19 -12 -25 -26 -10 -20 -9 -30 3 -47 37 -54 2 -97 -80 -97 -57 0 -67 9 -40 36 10 10 15 35 15 75 0 46 -3 59 -15 59 -8 0 -15 7 -15 15 0 11 12 15 45 15 32 0 45 -4 45 -14z m218 2 c7 -7 12 -27 12 -45 0 -27 -7 -37 -41 -58 -40 -26 -47 -47 -16 -53 10 -2 17 3 17 12 0 10 9 16 21 16 16 0 20 -5 17 -27 -3 -25 -8 -28 -45 -31 -35 -3 -44 1 -58 22 -23 35 -16 57 28 85 20 14 37 32 37 43 0 25 -36 24 -43 -2 -8 -32 -37 -25 -37 8 0 16 3 32 7 35 11 12 88 8 101 -5z m142 -3 c0 -8 -4 -15 -10 -15 -6 0 -10 -30 -10 -70 0 -40 4 -70 10 -70 6 0 10 -7 10 -15 0 -11 -11 -15 -40 -15 -29 0 -40 4 -40 15 0 8 5 15 10 15 6 0 10 30 10 70 0 40 -4 70 -10 70 -5 0 -10 7 -10 15 0 11 11 15 40 15 29 0 40 -4 40 -15z m177 -7 c19 -17 23 -32 23 -77 0 -76 -24 -101 -97 -101 -40 0 -53 4 -53 15 0 8 5 15 10 15 6 0 10 30 10 70 0 40 -4 70 -10 70 -5 0 -10 7 -10 15 0 25 98 20 127 -7z m109 -3 c-6 -22 -3 -25 19 -25 22 0 25 3 19 25 -6 24 -4 25 35 25 30 0 41 -4 41 -15 0 -8 -4 -15 -9 -15 -5 0 -21 -38 -35 -85 -21 -66 -31 -85 -45 -85 -20 0 -31 21 -56 113 -9 31 -21 57 -26 57 -5 0 -9 7 -9 15 0 11 11 15 36 15 34 0 36 -2 30 -25z m273 -1 c31 -39 29 -117 -4 -149 -20 -21 -34 -25 -80 -25 -42 0 -55 3 -55 15 0 8 5 15 10 15 6 0 10 30 10 70 0 40 -4 70 -10 70 -5 0 -10 7 -10 15 0 12 13 15 59 15 52 0 62 -3 80 -26z m136 -9 c0 -23 -5 -31 -21 -33 -11 -2 -27 4 -34 13 -11 13 -10 19 6 36 25 28 49 21 49 -16z m-1757 -302 c24 -20 42 -113 23 -113 -6 0 -11 9 -11 20 0 58 -96 93 -196 71 -69 -16 -145 -81 -171 -149 -39 -102 -8 -240 65 -289 74 -49 229 -39 277 18 14 17 25 40 25 51 0 39 7 14 14 -48 l7 -62 -64 -11 c-143 -25 -249 -6 -319 57 -119 107 -118 302 2 405 60 51 108 65 226 66 83 1 106 -2 122 -16z m410 5 c7 -7 12 -30 11 -52 -1 -40 -1 -40 -11 -13 -11 32 -34 39 -109 35 l-54 -3 -3 -112 -3 -113 50 0 c62 0 81 7 81 31 0 39 18 17 23 -28 6 -53 3 -63 -15 -45 -7 7 -40 12 -75 12 l-63 0 0 -100 0 -100 39 0 c73 0 101 10 101 36 0 13 5 24 10 24 6 0 10 -13 10 -29 0 -16 3 -36 6 -45 5 -14 -11 -16 -142 -15 -108 0 -142 3 -123 10 34 13 39 41 39 234 0 202 -7 256 -34 264 -12 3 29 8 89 12 61 3 121 6 136 7 14 1 30 -3 37 -10z m899 -6 c-41 -5 -50 -33 -45 -137 4 -92 4 -93 62 -191 66 -111 87 -138 131 -165 l30 -19 -68 0 c-63 0 -66 1 -56 19 10 15 2 36 -52 130 -73 129 -59 131 -146 -22 -45 -80 -53 -100 -43 -112 11 -13 3 -15 -64 -15 -49 0 -75 4 -71 10 3 6 12 10 19 10 21 0 62 51 130 165 l67 109 -3 100 c-3 93 -5 101 -25 112 -13 6 -21 13 -19 15 2 2 44 2 93 0 48 -3 76 -6 60 -9z m355 6 c21 -6 52 -27 68 -45 26 -30 30 -41 30 -96 l0 -62 -95 -91 c-85 -82 -95 -95 -95 -127 0 -27 7 -41 28 -57 48 -38 140 -10 143 44 1 12 5 1 9 -24 4 -25 6 -48 4 -51 -7 -13 -98 -18 -139 -8 -57 14 -86 47 -92 102 -7 60 12 92 102 174 83 75 101 112 83 165 -13 38 -64 61 -113 52 -39 -7 -63 -30 -74 -70 -8 -28 -9 -27 -16 18 -8 56 -4 65 38 77 45 13 74 13 119 -1z m-875 -5 c-18 -3 -31 -13 -38 -29 -5 -14 -9 -122 -9 -240 l0 -214 38 1 c75 1 116 13 129 39 12 24 13 22 13 -22 l0 -47 -207 -3 c-115 -2 -210 -2 -211 -1 -2 1 -6 21 -9 45 l-6 43 19 -23 c16 -19 32 -24 97 -29 l77 -6 0 216 c0 221 -6 262 -37 270 -10 3 25 5 77 4 52 0 82 -2 67 -4z m-207 -718 c69 -8 163 -21 210 -30 139 -26 420 -96 420 -105 0 -4 -24 -2 -52 6 -204 52 -560 97 -735 92 -145 -4 -164 -13 -135 -65 31 -57 169 -143 330 -205 23 -9 42 -21 42 -27 0 -16 -7 -14 -90 18 -195 76 -328 150 -390 217 -23 25 -40 53 -38 62 2 9 19 25 38 34 45 23 222 24 400 3z m170 -200 c0 -60 17 -96 84 -179 77 -95 82 -137 33 -263 -23 -62 -24 -62 -51 37 -10 34 -38 86 -76 138 -61 85 -77 130 -66 179 9 38 57 133 68 133 4 0 8 -20 8 -45z m269 -224 c70 -17 151 -33 179 -37 29 -3 52 -10 52 -14 0 -19 -358 53 -380 77 -13 14 -13 15 3 9 10 -3 76 -19 146 -35z m-344 -56 c2 -11 22 -45 45 -74 29 -40 40 -64 40 -90 0 -35 -19 -101 -30 -101 -3 0 -11 18 -18 40 -7 22 -28 62 -47 89 -48 67 -53 99 -24 158 21 42 24 45 27 23 1 -14 5 -34 7 -45z m612 -1 c-3 -3 -12 -4 -19 -1 -8 3 -5 6 6 6 11 1 17 -2 13 -5z"/>
 <path d="M1617 1814 c-10 -10 -9 -42 2 -48 5 -3 14 0 20 7 12 15 -9 54 -22 41z"/>
 <path d="M2100 1835 c0 -47 4 -65 13 -65 23 0 37 23 37 60 0 40 -7 54 -32 63 -16 6 -18 -1 -18 -58z"/>
 <path d="M2288 1824 c3 -19 7 -22 13 -12 13 20 11 38 -5 38 -9 0 -12 -8 -8 -26z"/>
 <path d="M2482 1888 c-18 -18 -16 -107 4 -115 24 -9 39 13 39 57 0 46 -24 77 -43 58z"/>
 </g>

</svg>