<!DOCTYPE svg PUBLIC "-//W3C//DTD SVG 20010904//EN" "http://www.w3.org/TR/2001/REC-SVG-20010904/DTD/svg10.dtd">
<svg version="1.0" xmlns="http://www.w3.org/2000/svg" width="111px" height="72px" viewBox="0 0 1110 720" preserveAspectRatio="xMidYMid meet">
<g id="layer101" fill="#040404" stroke="none">
 <path d="M93 701 c-47 -8 -73 -26 -73 -51 0 -49 179 -163 359 -230 93 -34 91 -33 91 -21 0 5 -17 15 -37 21 -80 26 -232 112 -267 151 -67 73 -43 89 134 89 125 0 300 -19 465 -51 174 -33 143 -17 -50 26 -149 33 -268 52 -405 64 -125 12 -154 12 -217 2z"/>
 <path d="M514 495 c-10 -22 -18 -61 -18 -87 -1 -41 6 -57 53 -125 34 -48 61 -100 71 -137 l16 -58 20 48 c10 27 19 72 19 100 0 41 -6 58 -30 88 -73 92 -89 118 -100 163 l-13 48 -18 -40z"/>
 <path d="M660 340 c0 -9 110 -36 180 -44 50 -6 45 -4 -87 29 -51 12 -93 19 -93 15z"/>
 <path d="M457 276 c-14 -36 -7 -80 18 -112 14 -19 34 -53 45 -76 l18 -41 11 40 c13 48 8 64 -34 118 -17 22 -36 51 -41 64 -9 22 -11 23 -17 7z"/>
 </g>
<g id="layer102" fill="#facd00" stroke="none">
 <path d="M514 495 c-10 -22 -18 -61 -18 -87 -1 -41 6 -57 53 -125 34 -48 61 -100 71 -137 l16 -58 20 48 c10 27 19 72 19 100 0 41 -6 58 -30 88 -73 92 -89 118 -100 163 l-13 48 -18 -40z"/>
 <path d="M457 276 c-14 -36 -7 -80 18 -112 14 -19 34 -53 45 -76 l18 -41 11 40 c13 48 8 64 -34 118 -17 22 -36 51 -41 64 -9 22 -11 23 -17 7z"/>
 </g>

</svg>